<?xml version="1.0" encoding="UTF-8"?>
<svg version="1.1" xmlns="http://www.w3.org/2000/svg" width="230" height="186">
<path d="M0 0 C75.9 0 151.8 0 230 0 C230 61.38 230 122.76 230 186 C154.1 186 78.2 186 0 186 C0 124.62 0 63.24 0 0 Z " fill="#141411" transform="translate(0,0)"/>
<path d="M0 0 C35.97 0 71.94 0 109 0 C109 0.33 109 0.66 109 1 C107.92105469 1.02578125 106.84210938 1.0515625 105.73046875 1.078125 C77.25844372 2.0381087 54.58223717 10.45607672 34.10546875 30.890625 C20.51870177 45.48949877 12.47812878 65.67278764 11.89453125 85.6015625 C11.92933594 86.39304687 11.96414063 87.18453125 12 88 C13.423125 87.01 13.423125 87.01 14.875 86 C18 84 18 84 20 84 C20.02126953 83.06994141 20.02126953 83.06994141 20.04296875 82.12109375 C21.11740073 62.17150543 31.44071014 43.79742308 45.8125 30.3125 C60.88372509 17.26611126 78.57206178 10.40220318 98.5 10.625 C99.53769531 10.61339844 100.57539062 10.60179687 101.64453125 10.58984375 C112.14797973 10.62908453 121.67018259 12.88144148 131.0625 17.5625 C131.69865234 17.86607422 132.33480469 18.16964844 132.99023438 18.48242188 C135.80425984 19.84061082 138.39580865 21.26387244 141 23 C144.85358487 22.74309434 147.1622086 20.44365371 150 18 C150.33 18.66 150.66 19.32 151 20 C151.5775 18.948125 152.155 17.89625 152.75 16.8125 C153.4985194 15.54079403 154.24850419 14.26994937 155 13 C155.556875 12.01 156.11375 11.02 156.6875 10 C159 8 159 8 160.9375 7.84765625 C163.34537715 8.07757508 165.63565089 8.48960083 168 9 C169.28003906 9.26296875 169.28003906 9.26296875 170.5859375 9.53125 C172.73223716 9.99165497 174.8673061 10.48069156 177 11 C174.63247981 15.31226893 172.32986214 19.33715165 169 23 C168.34 23 167.68 23 167 23 C166.9175 23.7425 166.835 24.485 166.75 25.25 C165.85719701 28.52361097 164.43761211 29.71965318 162 32 C162 32.66 162 33.32 162 34 C163.64301434 35.40637961 163.64301434 35.40637961 165.75 36.6875 C166.44609375 37.14511719 167.1421875 37.60273437 167.859375 38.07421875 C169.92243927 39.14791154 169.92243927 39.14791154 172.03125 38.9296875 C174.7642544 37.63910209 175.97445776 35.86179806 177.75 33.4375 C178.67039063 32.19806641 178.67039063 32.19806641 179.609375 30.93359375 C180.06828125 30.29550781 180.5271875 29.65742188 181 29 C184.36677677 30.2391609 187.0921156 31.66288942 190 33.75 C191.99066727 35.10991201 191.99066727 35.10991201 194 36 C196.95976672 35.5048792 196.95976672 35.5048792 199 34 C200.125 37.75 200.125 37.75 199 40 C199.66 40 200.32 40 201 40 C201.33 41.32 201.66 42.64 202 44 C201.34 43.67 200.68 43.34 200 43 C200 42.34 200 41.68 200 41 C198.35 40.67 196.7 40.34 195 40 C192.36 43.63 189.72 47.26 187 51 C182.98439035 49.99609759 181.04880628 48.82479402 177.75 46.4375 C176.85796875 45.79683594 175.9659375 45.15617187 175.046875 44.49609375 C174.03367188 43.75552734 174.03367188 43.75552734 173 43 C172.236875 43.763125 171.47375 44.52625 170.6875 45.3125 C167.84375 48.15625 167.84375 48.15625 165 51 C166.0478328 54.14349841 166.57913668 54.73251185 169.0625 56.6875 C170.031875 57.450625 171.00125 58.21375 172 59 C171.34 59.99 170.68 60.98 170 62 C164.89669663 62.49971147 160.91072801 61.4901704 156.0625 60 C132.74550772 53.82375693 99.2535543 55.2741867 78.24633789 67.08764648 C72.82976732 70.31427656 67.78051417 73.88440147 63 78 C59.8101444 80.45373508 57.60841169 81.13138231 53.6875 81.4375 C40.8657834 82.44424219 21.46568519 86.62897167 12 96 C11.51942285 98.0488648 11.51942285 98.0488648 11.75 100.1875 C11.8325 101.445625 11.915 102.70375 12 104 C10.02 104.99 10.02 104.99 8 106 C7.67 104.68 7.34 103.36 7 102 C4.74823628 102.86279215 4.74823628 102.86279215 3.8828125 105.4765625 C2.78307428 109.86578319 2.78168569 113.87437914 2.875 118.375 C2.88402344 119.20644531 2.89304688 120.03789063 2.90234375 120.89453125 C2.9257378 122.92981337 2.96160275 124.96494564 3 127 C3.66 127 4.32 127 5 127 C5 124.69 5 122.38 5 120 C5.66 120 6.32 120 7 120 C8.78409802 123.06246747 9.22880021 125.22079273 9.125 128.75 C9.10695313 129.54921875 9.08890625 130.3484375 9.0703125 131.171875 C9.04710937 131.77515625 9.02390625 132.3784375 9 133 C8.01 133 7.02 133 6 133 C6.85823439 135.28690563 6.85823439 135.28690563 9.6171875 135.96484375 C11.78356678 136.61164044 13.95023242 137.2574788 16.1171875 137.90234375 C18.94370809 138.97856636 20.01969175 139.83109096 22 142 C23.03125 142.350625 24.0625 142.70125 25.125 143.0625 C30.75763661 145.29407425 34.18990477 150.50045896 38 155 C49.14360294 167.00080316 63.98909089 176.24369687 80 180 C81.27037109 180.41185547 81.27037109 180.41185547 82.56640625 180.83203125 C104.46961732 187.50352391 128.7116138 181.61807606 148.49145508 171.28222656 C161.11995206 164.31840732 173.17941493 153.29182722 180 140.5625 C182.428941 136.23553406 182.428941 136.23553406 185.0078125 135.171875 C185.70648438 135.05328125 186.40515625 134.9346875 187.125 134.8125 C190.92680639 134.42965866 190.92680639 134.42965866 192.3984375 132.34765625 C193.64717614 130.18167162 193.64717614 130.18167162 195 127 C193.7058258 128.22880216 193.7058258 128.22880216 192 131 C189.5625 131.5 189.5625 131.5 187 131 C183.16822136 126.50820207 183.51740307 121.72521814 183.5625 116.125 C183.54251953 115.25230469 183.52253906 114.37960938 183.50195312 113.48046875 C183.50647222 107.47007507 184.58921997 103.95745057 188 99 C190.3125 99.125 190.3125 99.125 193 100 C195.25235406 103.53941352 196.39175476 106.86393236 197 111 C199.04012072 104.2757621 198.81456012 96.17208731 196.9375 89.4375 C196.02036062 86.07465562 196.01708036 85.1412187 197 82 C197.66 82 198.32 82 199 82 C199 82.66 199 83.32 199 84 C199.99 84 200.98 84 202 84 C202.144375 83.2575 202.28875 82.515 202.4375 81.75 C203 79 203 79 203.71875 77.10546875 C204.12479144 74.06579741 202.8903789 72.95407851 201.0625 70.5625 C199.15811923 68.06815161 198.07688508 66.58289617 197.6640625 63.453125 C198.03614929 60.73602613 198.69381715 59.37916793 200.3125 57.1875 C200.74175781 56.58292969 201.17101562 55.97835937 201.61328125 55.35546875 C203 54 203 54 206 54 C206 53.01 206 52.02 206 51 C206.99 51.33 207.98 51.66 209 52 C209.9590625 52.0928125 209.9590625 52.0928125 210.9375 52.1875 C214.18574695 53.46711244 215.2666607 56.09046617 217 59 C220.9252025 55.29909479 223.94580156 51.45040344 227 47 C227.99 47.33 228.98 47.66 230 48 C230 93.54 230 139.08 230 186 C154.1 186 78.2 186 0 186 C0 124.62 0 63.24 0 0 Z " fill="#E8E6DA" transform="translate(0,0)"/>
<path d="M0 0 C2.68712445 0.0018691 5.37424622 0.00334 8.06137085 0.00428772 C14.36128051 0.00736753 20.66117234 0.01553464 26.96107423 0.02563721 C34.14635849 0.03690381 41.33164371 0.04233508 48.51693463 0.04733264 C63.26911254 0.05772097 78.0212714 0.07602356 92.7734375 0.09765625 C92.7734375 15.93765625 92.7734375 31.77765625 92.7734375 48.09765625 C91.7834375 48.09765625 90.7934375 48.09765625 89.7734375 48.09765625 C88.07713437 50.06642258 86.57807632 51.98438787 85.0859375 54.09765625 C84.67021484 54.67 84.25449219 55.24234375 83.82617188 55.83203125 C82.79986889 57.24762157 81.78550351 58.67185256 80.7734375 60.09765625 C76.8984375 56.34765625 76.8984375 56.34765625 75.7734375 54.09765625 C73.74880495 53.44552333 73.74880495 53.44552333 71.7734375 53.09765625 C71.4434375 53.75765625 71.1134375 54.41765625 70.7734375 55.09765625 C70.7734375 54.10765625 70.7734375 53.11765625 70.7734375 52.09765625 C70.1134375 51.76765625 69.4534375 51.43765625 68.7734375 51.09765625 C68.7734375 52.08765625 68.7734375 53.07765625 68.7734375 54.09765625 C67.7834375 54.42765625 66.7934375 54.75765625 65.7734375 55.09765625 C62.98132625 58.35511938 61.78972291 60.20195887 61.7109375 64.53515625 C62.83731104 68.31182047 64.27291331 70.48240864 66.8125 73.421875 C67.7734375 75.09765625 67.7734375 75.09765625 67.48828125 77.1328125 C66.63518514 79.47766137 65.73314452 81.79435939 64.7734375 84.09765625 C63.1234375 83.76765625 61.4734375 83.43765625 59.7734375 83.09765625 C59.99 84.06251953 59.99 84.06251953 60.2109375 85.046875 C62.19629666 94.71171369 63.27641762 104.68339717 59.7734375 114.09765625 C59.4434375 114.09765625 59.1134375 114.09765625 58.7734375 114.09765625 C58.65226563 113.33839844 58.53109375 112.57914062 58.40625 111.796875 C58.23867187 110.80300781 58.07109375 109.80914062 57.8984375 108.78515625 C57.73601562 107.79902344 57.57359375 106.81289062 57.40625 105.796875 C56.89258296 102.89705798 56.89258296 102.89705798 54.7734375 100.09765625 C53.4534375 100.09765625 52.1334375 100.09765625 50.7734375 100.09765625 C47.38430415 105.51669269 47.34850402 110.04331239 47.4609375 116.22265625 C47.45771484 117.11597656 47.45449219 118.00929688 47.45117188 118.9296875 C47.4868534 123.26985848 47.57969869 126.26257068 49.7734375 130.09765625 C51.4234375 130.09765625 53.0734375 130.09765625 54.7734375 130.09765625 C55.7634375 127.12765625 56.7534375 124.15765625 57.7734375 121.09765625 C58.1034375 121.09765625 58.4334375 121.09765625 58.7734375 121.09765625 C58.51954592 126.92446802 58.16227737 130.84181153 53.7734375 135.09765625 C51.06464415 136.45205293 48.76410482 136.16267076 45.7734375 136.09765625 C45.51304687 136.81824219 45.25265625 137.53882813 44.984375 138.28125 C36.80107665 157.31401809 17.46270953 170.43189821 -1.05078125 177.88671875 C-2.09878906 178.28632813 -3.14679688 178.6859375 -4.2265625 179.09765625 C-5.03738281 179.41476563 -5.84820312 179.731875 -6.68359375 180.05859375 C-22.46179822 185.80129159 -41.29121593 186.26391016 -57.2265625 181.09765625 C-58.00128906 180.91589844 -58.77601562 180.73414063 -59.57421875 180.546875 C-74.68548625 176.83843373 -88.64964855 167.23124988 -99.2265625 156.09765625 C-100.57799625 154.74076217 -101.93240885 153.38683136 -103.2890625 152.03515625 C-105.31497515 150.0092436 -107.33546495 147.98428392 -109.3203125 145.91796875 C-111.51355519 143.82360175 -113.395918 143.1332579 -116.2265625 142.09765625 C-116.9484375 141.64390625 -117.6703125 141.19015625 -118.4140625 140.72265625 C-122.49036365 138.36746003 -126.83675036 136.77686594 -131.2265625 135.09765625 C-131.2265625 134.43765625 -131.2265625 133.77765625 -131.2265625 133.09765625 C-130.5665625 132.76765625 -129.9065625 132.43765625 -129.2265625 132.09765625 C-128.87243906 130.76969334 -128.54134696 129.43549018 -128.2265625 128.09765625 C-127.5665625 127.10765625 -126.9065625 126.11765625 -126.2265625 125.09765625 C-125.8965625 125.75765625 -125.5665625 126.41765625 -125.2265625 127.09765625 C-126.1640625 129.72265625 -126.1640625 129.72265625 -127.2265625 132.09765625 C-124.5865625 132.09765625 -121.9465625 132.09765625 -119.2265625 132.09765625 C-119.2265625 132.42765625 -119.2265625 132.75765625 -119.2265625 133.09765625 C-120.8765625 133.09765625 -122.5265625 133.09765625 -124.2265625 133.09765625 C-124.2265625 134.08765625 -124.2265625 135.07765625 -124.2265625 136.09765625 C-115.39340099 137.52535755 -106.56123249 138.71206642 -97.6640625 139.66015625 C-95.85663574 139.85411987 -95.85663574 139.85411987 -94.01269531 140.05200195 C-83.76085665 141.1148584 -73.52556496 141.75356515 -63.2265625 142.09765625 C-63.2265625 142.42765625 -63.2265625 142.75765625 -63.2265625 143.09765625 C-66.5265625 143.42765625 -69.8265625 143.75765625 -73.2265625 144.09765625 C-73.2265625 144.42765625 -73.2265625 144.75765625 -73.2265625 145.09765625 C-81.29685803 145.21312948 -89.20323853 144.99806936 -97.2265625 144.09765625 C-84.54538163 159.88614634 -65.7961706 171.20850106 -45.53515625 173.84765625 C-21.03703677 175.69875383 -0.79181171 170.40959042 18.7734375 155.09765625 C19.44375 154.60265625 20.1140625 154.10765625 20.8046875 153.59765625 C25.39051654 149.95810939 28.87049071 145.65040357 32.3359375 140.97265625 C32.79033203 140.37445068 33.24472656 139.77624512 33.71289062 139.15991211 C35.73792192 136.31704934 36.82020624 134.71303442 36.55078125 131.16796875 C36.16599609 130.14316406 36.16599609 130.14316406 35.7734375 129.09765625 C27.7721668 130.13057559 20.23690038 131.99763799 12.56274414 134.4206543 C9.09948622 135.497567 6.43886751 136.09765625 2.7734375 136.09765625 C2.6909375 136.96390625 2.6084375 137.83015625 2.5234375 138.72265625 C1.66736004 142.57500483 0.09975204 144.94587525 -2.2265625 148.09765625 C-2.5565625 147.43765625 -2.8865625 146.77765625 -3.2265625 146.09765625 C-3.8865625 145.76765625 -4.5465625 145.43765625 -5.2265625 145.09765625 C-4.7728125 144.58203125 -4.3190625 144.06640625 -3.8515625 143.53515625 C-0.33158302 138.25518704 0.13423012 132.3609282 0.0859375 126.16015625 C0.08392334 125.45938965 0.08190918 124.75862305 0.07983398 124.03662109 C-0.02358557 118.7120623 -0.86113544 114.82851037 -3.2265625 110.09765625 C-3.5565625 109.43765625 -3.8865625 108.77765625 -4.2265625 108.09765625 C-3.2365625 108.09765625 -2.2465625 108.09765625 -1.2265625 108.09765625 C-1.5565625 107.10765625 -1.8865625 106.11765625 -2.2265625 105.09765625 C-1.2365625 104.76765625 -0.2465625 104.43765625 0.7734375 104.09765625 C1.7634375 107.56265625 1.7634375 107.56265625 2.7734375 111.09765625 C2.46298018 109.18065765 2.14999079 107.26406902 1.8359375 105.34765625 C1.66191406 104.2803125 1.48789063 103.21296875 1.30859375 102.11328125 C0.88590693 99.73142557 0.37583734 97.43664464 -0.2265625 95.09765625 C5.75217518 93.45263941 11.54030667 92.53106881 17.7109375 91.97265625 C18.61739014 91.88773926 19.52384277 91.80282227 20.45776367 91.71533203 C28.90786841 90.9809258 37.29929229 90.89774195 45.7734375 91.09765625 C45.1134375 94.39765625 44.4534375 97.69765625 43.7734375 101.09765625 C44.5571875 99.81890625 45.3409375 98.54015625 46.1484375 97.22265625 C47.58561121 94.87779389 48.82034251 93.05075124 50.7734375 91.09765625 C54.3984375 91.47265625 54.3984375 91.47265625 57.7734375 92.09765625 C56.24787784 87.28642778 56.24787784 87.28642778 52.7734375 84.09765625 C51.23674885 83.87297794 49.69375696 83.6896882 48.1484375 83.53515625 C46.92253906 83.40947266 46.92253906 83.40947266 45.671875 83.28125 C45.04539063 83.22066406 44.41890625 83.16007812 43.7734375 83.09765625 C44.1034375 81.44765625 44.4334375 79.79765625 44.7734375 78.09765625 C38.4755149 72.58844546 32.69995851 67.91632089 24.7734375 65.09765625 C23.7421875 64.68515625 22.7109375 64.27265625 21.6484375 63.84765625 C18.10810785 62.92409199 15.41685279 62.63394885 11.7734375 63.09765625 C6.45550464 66.98882664 2.04150455 74.13327822 0.03125 80.41796875 C-0.77483997 82.87246743 -1.38203461 84.26649451 -3.2265625 86.09765625 C-6.1449212 87.00451196 -8.99838306 87.56775428 -12.01879883 88.01733398 C-20.48778577 89.29638199 -28.68092892 92.36267894 -36.03125 96.78515625 C-38.2265625 98.09765625 -38.2265625 98.09765625 -40.2265625 98.09765625 C-40.2265625 98.75765625 -40.2265625 99.41765625 -40.2265625 100.09765625 C-35.9365625 100.09765625 -31.6465625 100.09765625 -27.2265625 100.09765625 C-27.2265625 104.09765625 -27.2265625 104.09765625 -29.4765625 106.72265625 C-33.34452779 110.06317172 -35.84464316 111.37359505 -40.9765625 111.22265625 C-41.77578125 111.20460938 -42.575 111.1865625 -43.3984375 111.16796875 C-44.00171875 111.14476563 -44.605 111.1215625 -45.2265625 111.09765625 C-42.38000381 109.65487993 -39.51016575 108.28590521 -36.6015625 106.97265625 C-35.82554688 106.61945313 -35.04953125 106.26625 -34.25 105.90234375 C-32.2265625 105.09765625 -32.2265625 105.09765625 -30.2265625 105.09765625 C-30.5565625 104.43765625 -30.8865625 103.77765625 -31.2265625 103.09765625 C-39.8065625 103.09765625 -48.3865625 103.09765625 -57.2265625 103.09765625 C-57.5565625 101.44765625 -57.8865625 99.79765625 -58.2265625 98.09765625 C-30.12730121 87.55286109 -30.12730121 87.55286109 -23.2265625 88.09765625 C-23.5565625 86.44765625 -23.8865625 84.79765625 -24.2265625 83.09765625 C-40.0665625 82.76765625 -55.9065625 82.43765625 -72.2265625 82.09765625 C-72.2265625 81.76765625 -72.2265625 81.43765625 -72.2265625 81.09765625 C-50.7765625 81.09765625 -29.3265625 81.09765625 -7.2265625 81.09765625 C-6.5665625 79.11765625 -5.9065625 77.13765625 -5.2265625 75.09765625 C-4.06886414 72.94465161 -2.85925939 70.81881774 -1.6015625 68.72265625 C-0.96992188 67.66304688 -0.33828125 66.6034375 0.3125 65.51171875 C1.03566406 64.31675781 1.03566406 64.31675781 1.7734375 63.09765625 C1.02658691 63.07783691 0.27973633 63.05801758 -0.48974609 63.03759766 C-3.86071855 62.94257414 -7.23105179 62.83280366 -10.6015625 62.72265625 C-11.7771875 62.69171875 -12.9528125 62.66078125 -14.1640625 62.62890625 C-15.28554687 62.59023438 -16.40703125 62.5515625 -17.5625 62.51171875 C-18.59938965 62.48029785 -19.6362793 62.44887695 -20.70458984 62.41650391 C-23.2265625 62.09765625 -23.2265625 62.09765625 -25.2265625 60.09765625 C-23.18875283 58.05984658 -19.04309339 58.76871906 -16.23828125 58.67578125 C-15.42470657 58.64788513 -14.6111319 58.61998901 -13.77290344 58.59124756 C-12.04034376 58.53469428 -10.30768555 58.48109617 -8.57495117 58.43017578 C-5.96257192 58.34916063 -3.35175926 58.24523473 -0.74023438 58.140625 C7.696508 57.85789099 15.27104682 57.85320253 23.42553711 60.41430664 C26.66049966 61.35583312 29.43216633 61.32547019 32.7734375 61.09765625 C33.11713955 58.14256762 33.11713955 58.14256762 31.4609375 56.7109375 C30.9040625 56.28167969 30.3471875 55.85242187 29.7734375 55.41015625 C28.7834375 54.64703125 27.7934375 53.88390625 26.7734375 53.09765625 C28.13714049 50.10545357 29.72251833 47.80739096 31.8984375 45.34765625 C32.43726563 44.7340625 32.97609375 44.12046875 33.53125 43.48828125 C33.94117188 43.029375 34.35109375 42.57046875 34.7734375 42.09765625 C38.28526293 44.02571727 41.4183684 45.80714517 44.5234375 48.34765625 C46.69304051 50.40462656 46.69304051 50.40462656 49.7734375 50.09765625 C51.92275321 47.64551301 51.92275321 47.64551301 53.9609375 44.59765625 C55.03408203 43.06625 55.03408203 43.06625 56.12890625 41.50390625 C56.67160156 40.70984375 57.21429688 39.91578125 57.7734375 39.09765625 C62.6484375 40.97265625 62.6484375 40.97265625 63.7734375 42.09765625 C63.7734375 41.43765625 63.7734375 40.77765625 63.7734375 40.09765625 C63.1134375 40.09765625 62.4534375 40.09765625 61.7734375 40.09765625 C61.4434375 38.44765625 61.1134375 36.79765625 60.7734375 35.09765625 C59.95359375 35.7009375 59.95359375 35.7009375 59.1171875 36.31640625 C58.34375 36.57421875 57.5703125 36.83203125 56.7734375 37.09765625 C53.7549588 35.49963811 51.17778403 33.52723007 48.4296875 31.50390625 C45.93542348 29.80682686 45.93542348 29.80682686 43.6328125 30.62109375 C41.51546206 32.3025191 40.08759862 34.01861104 38.5234375 36.22265625 C38.00265625 36.94710937 37.481875 37.6715625 36.9453125 38.41796875 C36.36523438 39.24941406 36.36523438 39.24941406 35.7734375 40.09765625 C32.55490919 39.46699868 30.26542681 38.3174493 27.5234375 36.53515625 C26.81703125 36.08011719 26.110625 35.62507813 25.3828125 35.15625 C24.58617187 34.63224609 24.58617187 34.63224609 23.7734375 34.09765625 C24.83716699 31.89191415 25.85143539 29.99469904 27.3359375 28.03515625 C28.96032478 26.05584129 28.96032478 26.05584129 29.7734375 23.09765625 C30.4334375 23.09765625 31.0934375 23.09765625 31.7734375 23.09765625 C32.11375 22.32421875 32.11375 22.32421875 32.4609375 21.53515625 C34.2709928 18.17362498 36.51340154 15.16854481 38.7734375 12.09765625 C36.87958313 11.59021202 34.98325084 11.09201051 33.0859375 10.59765625 C32.03019531 10.31921875 30.97445312 10.04078125 29.88671875 9.75390625 C25.84046303 8.85700132 25.84046303 8.85700132 21.7734375 9.09765625 C19.64355514 11.27519753 19.64355514 11.27519753 17.9609375 14.09765625 C17.35636719 15.02578125 16.75179687 15.95390625 16.12890625 16.91015625 C15.68160156 17.63203125 15.23429688 18.35390625 14.7734375 19.09765625 C16.0934375 19.42765625 17.4134375 19.75765625 18.7734375 20.09765625 C16.10677083 20.09765625 13.44010417 20.09765625 10.7734375 20.09765625 C9.814375 21.11859375 9.814375 21.11859375 8.8359375 22.16015625 C8.1553125 22.79953125 7.4746875 23.43890625 6.7734375 24.09765625 C3.2646114 23.69927425 0.41073974 21.93311674 -2.6640625 20.28515625 C-8.98365995 17.05944761 -15.39225215 14.9486153 -22.2265625 13.09765625 C-22.83677246 12.92258545 -23.44698242 12.74751465 -24.07568359 12.56713867 C-41.57746624 8.74694253 -62.33290842 12.17079674 -77.6484375 21.37890625 C-95.37845138 33.19891551 -106.75774676 46.7277684 -113.2265625 67.09765625 C-113.5978125 68.08765625 -113.9690625 69.07765625 -114.3515625 70.09765625 C-115.30123781 73.00155399 -115.30123781 73.00155399 -115.47265625 75.7265625 C-116.28907343 83.29606009 -116.28907343 83.29606009 -119.35546875 85.91796875 C-121.61008222 87.15289006 -123.81905363 88.20103258 -126.2265625 89.09765625 C-125.32714226 63.23932435 -115.85134247 41.61872922 -97.078125 23.54296875 C-85.0303637 13.21160084 -71.49359541 6.24292886 -55.9765625 2.78515625 C-54.9251709 2.54563232 -54.9251709 2.54563232 -53.85253906 2.30126953 C-36.35820121 -1.2061243 -17.72753043 -0.03656171 0 0 Z " fill="#E5E3D9" transform="translate(137.2265625,-0.09765625)"/>
<path d="M0 0 C2.40787715 0.22991883 4.69815089 0.64194458 7.0625 1.15234375 C8.34253906 1.4153125 8.34253906 1.4153125 9.6484375 1.68359375 C11.79473716 2.14399872 13.9298061 2.63303531 16.0625 3.15234375 C13.69497981 7.46461268 11.39236214 11.4894954 8.0625 15.15234375 C7.4025 15.15234375 6.7425 15.15234375 6.0625 15.15234375 C5.98 15.89484375 5.8975 16.63734375 5.8125 17.40234375 C4.91969701 20.67595472 3.50011211 21.87199693 1.0625 24.15234375 C1.0625 24.81234375 1.0625 25.47234375 1.0625 26.15234375 C2.70551434 27.55872336 2.70551434 27.55872336 4.8125 28.83984375 C5.50859375 29.29746094 6.2046875 29.75507812 6.921875 30.2265625 C8.98493927 31.30025529 8.98493927 31.30025529 11.09375 31.08203125 C13.8267544 29.79144584 15.03695776 28.01414181 16.8125 25.58984375 C17.42609375 24.76355469 18.0396875 23.93726562 18.671875 23.0859375 C19.13078125 22.44785156 19.5896875 21.80976563 20.0625 21.15234375 C23.42927677 22.39150465 26.1546156 23.81523317 29.0625 25.90234375 C31.05316727 27.26225576 31.05316727 27.26225576 33.0625 28.15234375 C36.02226672 27.65722295 36.02226672 27.65722295 38.0625 26.15234375 C39.1875 29.90234375 39.1875 29.90234375 38.0625 32.15234375 C38.7225 32.15234375 39.3825 32.15234375 40.0625 32.15234375 C40.3925 33.47234375 40.7225 34.79234375 41.0625 36.15234375 C40.4025 35.82234375 39.7425 35.49234375 39.0625 35.15234375 C39.0625 34.49234375 39.0625 33.83234375 39.0625 33.15234375 C37.4125 32.82234375 35.7625 32.49234375 34.0625 32.15234375 C31.4225 35.78234375 28.7825 39.41234375 26.0625 43.15234375 C22.04689035 42.14844134 20.11130628 40.97713777 16.8125 38.58984375 C15.92046875 37.94917969 15.0284375 37.30851562 14.109375 36.6484375 C13.09617188 35.90787109 13.09617188 35.90787109 12.0625 35.15234375 C11.299375 35.91546875 10.53625 36.67859375 9.75 37.46484375 C7.85416667 39.36067708 5.95833333 41.25651042 4.0625 43.15234375 C5.1103328 46.29584216 5.64163668 46.8848556 8.125 48.83984375 C9.094375 49.60296875 10.06375 50.36609375 11.0625 51.15234375 C10.4025 52.14234375 9.7425 53.13234375 9.0625 54.15234375 C3.95919663 54.65205522 -0.02677199 53.64251415 -4.875 52.15234375 C-28.19199228 45.97610068 -61.6839457 47.42653045 -82.69116211 59.23999023 C-88.10773268 62.46662031 -93.15698583 66.03674522 -97.9375 70.15234375 C-101.1273556 72.60607883 -103.32908831 73.28372606 -107.25 73.58984375 C-117.80555453 74.41865025 -127.87094661 77.42598149 -137.5625 81.58984375 C-138.21299316 81.86586426 -138.86348633 82.14188477 -139.53369141 82.42626953 C-144.01161528 84.443719 -147.31954005 86.90731198 -150.9375 90.15234375 C-151.6875 87.46484375 -151.6875 87.46484375 -151.9375 84.15234375 C-149.61374268 80.30920664 -146.93301352 78.15010051 -142.9375 76.15234375 C-142.2775 76.15234375 -141.6175 76.15234375 -140.9375 76.15234375 C-140.91623047 75.22228516 -140.91623047 75.22228516 -140.89453125 74.2734375 C-139.82009927 54.32384918 -129.49678986 35.94976683 -115.125 22.46484375 C-100.05377491 9.41845501 -82.36543822 2.55454693 -62.4375 2.77734375 C-61.39980469 2.76574219 -60.36210938 2.75414062 -59.29296875 2.7421875 C-48.78952027 2.78142828 -39.26731741 5.03378523 -29.875 9.71484375 C-29.23884766 10.01841797 -28.60269531 10.32199219 -27.94726562 10.63476562 C-25.13324016 11.99295457 -22.54169135 13.41621619 -19.9375 15.15234375 C-16.08391513 14.89543809 -13.7752914 12.59599746 -10.9375 10.15234375 C-10.6075 10.81234375 -10.2775 11.47234375 -9.9375 12.15234375 C-9.36 11.10046875 -8.7825 10.04859375 -8.1875 8.96484375 C-7.4389806 7.69313778 -6.68899581 6.42229312 -5.9375 5.15234375 C-5.380625 4.16234375 -4.82375 3.17234375 -4.25 2.15234375 C-1.9375 0.15234375 -1.9375 0.15234375 0 0 Z " fill="#E7E5DA" transform="translate(160.9375,7.84765625)"/>
<path d="M0 0 C2.7150203 2.3913755 5.52400995 4.23564366 8.66796875 6.0078125 C11.99341223 8.1121347 13.22308476 9.6907738 14.546875 13.453125 C16.33089046 21.56364905 16.26324222 30.27398186 13.359375 38.078125 C13.029375 38.078125 12.699375 38.078125 12.359375 38.078125 C12.23820313 37.31886719 12.11703125 36.55960938 11.9921875 35.77734375 C11.82460937 34.78347656 11.65703125 33.78960937 11.484375 32.765625 C11.24074219 31.28642578 11.24074219 31.28642578 10.9921875 29.77734375 C10.47852046 26.87752673 10.47852046 26.87752673 8.359375 24.078125 C7.039375 24.078125 5.719375 24.078125 4.359375 24.078125 C0.97024165 29.49716144 0.93444152 34.02378114 1.046875 40.203125 C1.04365234 41.09644531 1.04042969 41.98976562 1.03710938 42.91015625 C1.0727909 47.25032723 1.16563619 50.24303943 3.359375 54.078125 C5.009375 54.078125 6.659375 54.078125 8.359375 54.078125 C9.349375 51.108125 10.339375 48.138125 11.359375 45.078125 C11.689375 45.078125 12.019375 45.078125 12.359375 45.078125 C12.10548342 50.90493677 11.74821487 54.82228028 7.359375 59.078125 C4.65058165 60.43252168 2.35004232 60.14313951 -0.640625 60.078125 C-0.90101563 60.79871094 -1.16140625 61.51929688 -1.4296875 62.26171875 C-9.61298585 81.29448684 -28.95135297 94.41236696 -47.46484375 101.8671875 C-49.03685547 102.46660156 -49.03685547 102.46660156 -50.640625 103.078125 C-51.45144531 103.39523438 -52.26226562 103.71234375 -53.09765625 104.0390625 C-68.87586072 109.78176034 -87.70527843 110.24437891 -103.640625 105.078125 C-104.41535156 104.89636719 -105.19007812 104.71460938 -105.98828125 104.52734375 C-121.09954875 100.81890248 -135.06371105 91.21171863 -145.640625 80.078125 C-146.99205875 78.72123092 -148.34647135 77.36730011 -149.703125 76.015625 C-151.72903765 73.98971235 -153.74952745 71.96475267 -155.734375 69.8984375 C-157.92761769 67.8040705 -159.8099805 67.11372665 -162.640625 66.078125 C-163.3625 65.624375 -164.084375 65.170625 -164.828125 64.703125 C-168.90442615 62.34792878 -173.25081286 60.75733469 -177.640625 59.078125 C-177.640625 58.418125 -177.640625 57.758125 -177.640625 57.078125 C-176.650625 56.583125 -176.650625 56.583125 -175.640625 56.078125 C-175.28650156 54.75016209 -174.95540946 53.41595893 -174.640625 52.078125 C-173.980625 51.088125 -173.320625 50.098125 -172.640625 49.078125 C-172.310625 49.738125 -171.980625 50.398125 -171.640625 51.078125 C-172.578125 53.703125 -172.578125 53.703125 -173.640625 56.078125 C-171.000625 56.078125 -168.360625 56.078125 -165.640625 56.078125 C-165.640625 56.408125 -165.640625 56.738125 -165.640625 57.078125 C-167.290625 57.078125 -168.940625 57.078125 -170.640625 57.078125 C-170.640625 58.068125 -170.640625 59.058125 -170.640625 60.078125 C-161.80746349 61.5058263 -152.97529499 62.69253517 -144.078125 63.640625 C-142.87317383 63.76993408 -141.66822266 63.89924316 -140.42675781 64.0324707 C-130.17491915 65.09532715 -119.93962746 65.7340339 -109.640625 66.078125 C-109.640625 66.408125 -109.640625 66.738125 -109.640625 67.078125 C-114.590625 67.573125 -114.590625 67.573125 -119.640625 68.078125 C-119.640625 68.408125 -119.640625 68.738125 -119.640625 69.078125 C-127.71092053 69.19359823 -135.61730103 68.97853811 -143.640625 68.078125 C-130.95944413 83.86661509 -112.2102331 95.18896981 -91.94921875 97.828125 C-67.45109927 99.67922258 -47.20587421 94.39005917 -27.640625 79.078125 C-26.9703125 78.583125 -26.3 78.088125 -25.609375 77.578125 C-21.02354596 73.93857814 -17.54357179 69.63087232 -14.078125 64.953125 C-13.62373047 64.35491943 -13.16933594 63.75671387 -12.70117188 63.14038086 C-10.67614058 60.29751809 -9.59385626 58.69350317 -9.86328125 55.1484375 C-10.11980469 54.46523437 -10.37632812 53.78203125 -10.640625 53.078125 C-18.6418957 54.11104434 -26.17716212 55.97810674 -33.85131836 58.40112305 C-37.31457628 59.47803575 -39.97519499 60.078125 -43.640625 60.078125 C-43.723125 60.944375 -43.805625 61.810625 -43.890625 62.703125 C-44.74670246 66.55547358 -46.31431046 68.926344 -48.640625 72.078125 C-48.970625 71.418125 -49.300625 70.758125 -49.640625 70.078125 C-50.300625 69.748125 -50.960625 69.418125 -51.640625 69.078125 C-51.186875 68.5625 -50.733125 68.046875 -50.265625 67.515625 C-46.74564552 62.23565579 -46.27983238 56.34139695 -46.328125 50.140625 C-46.33013916 49.4398584 -46.33215332 48.7390918 -46.33422852 48.01708984 C-46.43764807 42.69253105 -47.27519794 38.80897912 -49.640625 34.078125 C-49.970625 33.418125 -50.300625 32.758125 -50.640625 32.078125 C-49.650625 32.078125 -48.660625 32.078125 -47.640625 32.078125 C-47.970625 31.088125 -48.300625 30.098125 -48.640625 29.078125 C-47.650625 28.748125 -46.660625 28.418125 -45.640625 28.078125 C-44.980625 30.388125 -44.320625 32.698125 -43.640625 35.078125 C-43.95108232 33.1611264 -44.26407171 31.24453777 -44.578125 29.328125 C-44.75214844 28.26078125 -44.92617187 27.1934375 -45.10546875 26.09375 C-45.52815557 23.71189432 -46.03822516 21.41711339 -46.640625 19.078125 C-40.66188732 17.43310816 -34.87375583 16.51153756 -28.703125 15.953125 C-27.79667236 15.86820801 -26.89021973 15.78329102 -25.95629883 15.69580078 C-17.50619409 14.96139455 -9.11477021 14.8782107 -0.640625 15.078125 C-1.630625 20.028125 -1.630625 20.028125 -2.640625 25.078125 C-1.856875 23.799375 -1.073125 22.520625 -0.265625 21.203125 C1.17154871 18.85826264 2.40628001 17.03121999 4.359375 15.078125 C7.984375 15.453125 7.984375 15.453125 11.359375 16.078125 C9.83381534 11.26689653 9.83381534 11.26689653 6.359375 8.078125 C4.82268635 7.85344669 3.27969446 7.67015695 1.734375 7.515625 C0.91710937 7.43183594 0.09984375 7.34804687 -0.7421875 7.26171875 C-1.36867187 7.20113281 -1.99515625 7.14054687 -2.640625 7.078125 C-2.310625 5.428125 -1.980625 3.778125 -1.640625 2.078125 C-7.9385476 -3.43108579 -13.71410399 -8.10321036 -21.640625 -10.921875 C-22.671875 -11.334375 -23.703125 -11.746875 -24.765625 -12.171875 C-28.30595465 -13.09543926 -30.99720971 -13.3855824 -34.640625 -12.921875 C-39.95855786 -9.03070461 -44.37255795 -1.88625303 -46.3828125 4.3984375 C-47.18890247 6.85293618 -47.79609711 8.24696326 -49.640625 10.078125 C-52.5589837 10.98498071 -55.41244556 11.54822303 -58.43286133 11.99780273 C-66.90184827 13.27685074 -75.09499142 16.34314769 -82.4453125 20.765625 C-84.640625 22.078125 -84.640625 22.078125 -86.640625 22.078125 C-86.640625 22.738125 -86.640625 23.398125 -86.640625 24.078125 C-82.350625 24.078125 -78.060625 24.078125 -73.640625 24.078125 C-73.640625 28.078125 -73.640625 28.078125 -75.890625 30.703125 C-79.75859029 34.04364047 -82.25870566 35.3540638 -87.390625 35.203125 C-88.18984375 35.18507812 -88.9890625 35.16703125 -89.8125 35.1484375 C-90.41578125 35.12523437 -91.0190625 35.10203125 -91.640625 35.078125 C-88.79406631 33.63534868 -85.92422825 32.26637396 -83.015625 30.953125 C-82.23960938 30.59992188 -81.46359375 30.24671875 -80.6640625 29.8828125 C-78.640625 29.078125 -78.640625 29.078125 -76.640625 29.078125 C-76.970625 28.418125 -77.300625 27.758125 -77.640625 27.078125 C-86.220625 27.078125 -94.800625 27.078125 -103.640625 27.078125 C-103.970625 25.428125 -104.300625 23.778125 -104.640625 22.078125 C-76.54136371 11.53332984 -76.54136371 11.53332984 -69.640625 12.078125 C-69.970625 10.428125 -70.300625 8.778125 -70.640625 7.078125 C-86.480625 6.748125 -102.320625 6.418125 -118.640625 6.078125 C-118.640625 5.748125 -118.640625 5.418125 -118.640625 5.078125 C-97.190625 5.078125 -75.740625 5.078125 -53.640625 5.078125 C-52.980625 3.098125 -52.320625 1.118125 -51.640625 -0.921875 C-50.48292664 -3.07487964 -49.27332189 -5.20071351 -48.015625 -7.296875 C-47.38398438 -8.35648438 -46.75234375 -9.41609375 -46.1015625 -10.5078125 C-45.61945313 -11.30445312 -45.13734375 -12.10109375 -44.640625 -12.921875 C-45.38747559 -12.94169434 -46.13432617 -12.96151367 -46.90380859 -12.98193359 C-50.27478105 -13.07695711 -53.64511429 -13.18672759 -57.015625 -13.296875 C-58.19125 -13.3278125 -59.366875 -13.35875 -60.578125 -13.390625 C-61.69960937 -13.42929687 -62.82109375 -13.46796875 -63.9765625 -13.5078125 C-65.53189697 -13.55494385 -65.53189697 -13.55494385 -67.11865234 -13.60302734 C-69.640625 -13.921875 -69.640625 -13.921875 -71.640625 -15.921875 C-69.69671675 -17.86578325 -66.04573188 -17.19945873 -63.38671875 -17.2734375 C-62.65244156 -17.29659027 -61.91816437 -17.31974304 -61.16163635 -17.34359741 C-59.60058744 -17.39133578 -58.0394599 -17.4365575 -56.47827148 -17.47949219 C-54.11213993 -17.54592005 -51.74659474 -17.62396205 -49.38085938 -17.703125 C-47.86200009 -17.74810789 -46.34312015 -17.79239964 -44.82421875 -17.8359375 C-43.77529701 -17.87178452 -43.77529701 -17.87178452 -42.70518494 -17.90835571 C-25.10682483 -18.34693026 -12.68281165 -11.87498925 0 0 Z " fill="#131310" transform="translate(183.640625,75.921875)"/>
<path d="M0 0 C0.33 0.66 0.66 1.32 1 2 C-10.22 2.33 -21.44 2.66 -33 3 C-31.32649465 4.67350535 -29.23924902 4.20763759 -26.94140625 4.28125 C-25.40323242 4.33732422 -25.40323242 4.33732422 -23.83398438 4.39453125 C-22.75439453 4.42933594 -21.67480469 4.46414062 -20.5625 4.5 C-18.43866202 4.56871615 -16.31494853 4.64143333 -14.19140625 4.71875 C-13.24467041 4.74904297 -12.29793457 4.77933594 -11.32250977 4.81054688 C-9 5 -9 5 -7 6 C-7.27714844 6.68578125 -7.55429688 7.3715625 -7.83984375 8.078125 C-8.65499604 10.13110114 -9.41333327 12.20710477 -10.12890625 14.296875 C-11.73759315 18.17175027 -13.11437456 20.9291777 -16 24 C-21.4316818 25.88736957 -27.34953507 25.38771469 -33 25 C-32.505 26.485 -32.505 26.485 -32 28 C-31.34 28.33 -30.68 28.66 -30 29 C-30.66 29 -31.32 29 -32 29 C-32 29.66 -32 30.32 -32 31 C-32.95777344 31.21914062 -33.91554688 31.43828125 -34.90234375 31.6640625 C-43.33332001 33.65260116 -51.46223395 36.06375622 -59.58959961 39.06884766 C-64.82606511 41 -64.82606511 41 -67 41 C-66.505 42.98 -66.505 42.98 -66 45 C-57.42 45 -48.84 45 -40 45 C-39.67 45.99 -39.34 46.98 -39 48 C-39.62648438 48.27714844 -40.25296875 48.55429688 -40.8984375 48.83984375 C-41.71570313 49.20207031 -42.53296875 49.56429687 -43.375 49.9375 C-44.18710938 50.29714844 -44.99921875 50.65679687 -45.8359375 51.02734375 C-47.23683785 51.6569903 -48.62625284 52.31312642 -50 53 C-49.67 53.66 -49.34 54.32 -49 55 C-53.63020931 55.65810082 -58.26091439 56.25667175 -62.90966797 56.76855469 C-64.72396955 56.96943741 -66.5360722 57.18999259 -68.34765625 57.4140625 C-75.76268949 57.94161427 -75.76268949 57.94161427 -79.3046875 55.24609375 C-80.09101562 54.52550781 -80.87734375 53.80492187 -81.6875 53.0625 C-89.67385457 46.49979994 -100.03775959 47.89939546 -109.88867188 47.99121094 C-112.76273785 47.99932977 -115.61362442 47.91723992 -118.484375 47.7890625 C-120.09372218 47.73356233 -121.70309578 47.6788206 -123.3125 47.625 C-124.04025635 47.58632812 -124.7680127 47.54765625 -125.51782227 47.5078125 C-127.79713356 47.41678296 -127.79713356 47.41678296 -131 48 C-133.43554275 50.23289063 -133.43554275 50.23289063 -135 53 C-135.66 53.99 -136.32 54.98 -137 56 C-136.125 48.125 -136.125 48.125 -135 47 C-135.165 45.783125 -135.33 44.56625 -135.5 43.3125 C-135.50489155 40.56834051 -135.37301494 39.4185287 -133.52734375 37.34765625 C-122.51629844 29.58847105 -107.84384953 25.08001092 -94.58203125 23.625 C-87.80446945 22.8762705 -84.25672176 21.99455034 -79.484375 17.140625 C-75.97766313 14.11911855 -72.10151396 11.98701758 -68.0625 9.75 C-67.31073486 9.32589844 -66.55896973 8.90179688 -65.78442383 8.46484375 C-45.6966646 -2.52422675 -22.17754018 -0.26542812 0 0 Z " fill="#151513" transform="translate(146,57)"/>
<path d="M0 0 C8.23668667 2.87036051 15.24522713 8.49522713 21.375 14.625 C21 16.75 21 16.75 20.375 18.625 C21.06207031 18.71136719 21.74914062 18.79773438 22.45703125 18.88671875 C29.86918681 20.04254844 29.86918681 20.04254844 32.4375 23 C33.22604816 25.20793484 33.94816173 27.32007333 34.375 29.625 C33.1375 29.356875 31.9 29.08875 30.625 28.8125 C28.44492565 28.47656315 28.44492565 28.47656315 26.375 28.625 C23.91835029 30.67452447 23.91835029 30.67452447 22.375 33.625 C21.7975 34.553125 21.22 35.48125 20.625 36.4375 C20.00625 37.5203125 20.00625 37.5203125 19.375 38.625 C18.23856034 35.21568103 18.50752236 34.62164544 19.8125 31.4375 C20.09996094 30.72207031 20.38742188 30.00664063 20.68359375 29.26953125 C20.91175781 28.72683594 21.13992187 28.18414062 21.375 27.625 C-1.68933504 28.94723749 -1.68933504 28.94723749 -24.625 31.625 C-24.14417969 32.67816406 -23.66335937 33.73132813 -23.16796875 34.81640625 C-21.90549606 37.76217587 -21.18504551 40.34440838 -20.9375 43.5625 C-20.87175781 44.33464844 -20.80601562 45.10679688 -20.73828125 45.90234375 C-20.70089844 46.47082031 -20.66351563 47.03929687 -20.625 47.625 C-21.615 48.12 -21.615 48.12 -22.625 48.625 C-22.79515625 48.03332031 -22.9653125 47.44164062 -23.140625 46.83203125 C-24.6197109 42.0092671 -26.03922998 38.32644002 -29.625 34.625 C-32.51361709 33.18069145 -34.42147701 33.24811494 -37.625 33.625 C-40.99908354 36.25843105 -42.97050306 39.15483656 -45.0625 42.8125 C-46.80449251 45.71039409 -47.32182451 46.4865938 -50.5 47.9375 C-52.046875 48.2778125 -52.046875 48.2778125 -53.625 48.625 C-54.63949219 49.099375 -55.65398437 49.57375 -56.69921875 50.0625 C-61.18827513 52.02130741 -65.73410935 52.66620786 -70.5625 53.3125 C-71.47604248 53.43987549 -72.38958496 53.56725098 -73.33081055 53.69848633 C-81.4686928 54.75569487 -89.4288201 54.93800828 -97.625 54.625 C-97.625 55.285 -97.625 55.945 -97.625 56.625 C-100.64732097 60.07908111 -103.97578763 62.32833695 -108.51318359 63.14453125 C-111.79912134 63.28835845 -115.02588874 63.25089032 -118.3125 63.125 C-119.4677417 63.09946045 -120.6229834 63.0739209 -121.81323242 63.04760742 C-142.0800537 62.47133359 -142.0800537 62.47133359 -147.8125 58.3125 C-150.37075121 54.51923096 -151.6893617 52.20186161 -151.5 47.5625 C-150.44902328 44.034221 -149.55553112 42.84295431 -146.625 40.625 C-143.91104831 40.28998218 -141.63839068 40.20063587 -138.9375 40.3125 C-138.16873535 40.33231934 -137.3999707 40.35213867 -136.60791016 40.37255859 C-134.89704828 40.4199239 -133.18641462 40.4760879 -131.47607422 40.53955078 C-128.36959325 40.63265477 -125.26797535 40.64453862 -122.16015625 40.65234375 C-119.940077 40.68298678 -117.72002304 40.71552404 -115.5 40.75 C-114.44594971 40.74701904 -113.39189941 40.74403809 -112.3059082 40.7409668 C-104.89592961 40.93287396 -101.06145807 42.68499229 -95.625 47.625 C-88.65454359 52.27197094 -78.24870958 49.4711294 -70.3125 48.375 C-69.46502197 48.26583252 -68.61754395 48.15666504 -67.74438477 48.04418945 C-62.21028751 47.21426534 -58.17701541 45.94626351 -53.625 42.625 C-52.965 40.975 -52.305 39.325 -51.625 37.625 C-55.915 37.295 -60.205 36.965 -64.625 36.625 C-64.625 35.965 -64.625 35.305 -64.625 34.625 C-52.86842152 28.3344671 -41.32412393 22.21039852 -27.625 22.625 C-27.315625 21.4803125 -27.315625 21.4803125 -27 20.3125 C-21.81769471 6.41449945 -15.92132185 -4.48576925 0 0 Z " fill="#DADAD2" transform="translate(161.625,63.375)"/>
<path d="M0 0 C0.71484375 2.171875 0.71484375 2.171875 1 5 C-1.14344308 9.03040579 -4.13243066 12.45828318 -7 16 C-7.60199219 16.77988281 -8.20398438 17.55976563 -8.82421875 18.36328125 C-16.96763744 28.30849757 -28.10638044 35.37576071 -40 40 C-40.67160156 40.28230469 -41.34320313 40.56460938 -42.03515625 40.85546875 C-44.00423169 41.65199413 -45.98089344 42.34062387 -48 43 C-48.82242188 43.27972656 -49.64484375 43.55945313 -50.4921875 43.84765625 C-69.26779167 49.43872951 -91.6275923 46.25876531 -108.73046875 37.0703125 C-130.84076975 24.47769074 -130.84076975 24.47769074 -134 15 C-126.82068714 14.88421846 -119.82553792 15.19946213 -112.6875 15.9375 C-105.81623301 16.61850402 -98.98700315 17.07337431 -92.08203125 17.1796875 C-91.41104904 17.19216019 -90.74006683 17.20463287 -90.04875183 17.21748352 C-86.73645276 17.2773133 -83.42915634 17.31160295 -80.1159668 17.30639648 C-73.61936867 17.40686156 -69.54967677 17.54158371 -64.60205078 21.87133789 C-61.52750205 24.03739074 -58.06668955 23.68186001 -54.4375 23.5625 C-53.34405273 23.57893555 -53.34405273 23.57893555 -52.22851562 23.59570312 C-47.07222645 23.52608626 -44.08813817 22.35483985 -40 19 C-37.62816728 15.96932486 -36.16861371 13.67440113 -35.23364258 9.93481445 C-34 7 -34 7 -31.55737305 5.69213867 C-30.04977417 5.30892456 -30.04977417 5.30892456 -28.51171875 4.91796875 C-27.41279297 4.62599609 -26.31386719 4.33402344 -25.18164062 4.03320312 C-24.02857422 3.75412109 -22.87550781 3.47503906 -21.6875 3.1875 C-19.97530273 2.73987305 -19.97530273 2.73987305 -18.22851562 2.28320312 C-4.11382093 -1.37127364 -4.11382093 -1.37127364 0 0 Z " fill="#E3E2D7" transform="translate(174,129)"/>
<path d="M0 0 C1.43073853 -0.00845947 1.43073853 -0.00845947 2.89038086 -0.01708984 C12.62751114 0.08181533 21.73200156 1.73281101 30.875 5.0625 C31.59550537 5.3198291 32.31601074 5.5771582 33.05834961 5.84228516 C39.15941937 8.09044188 44.81867989 10.92830503 50.375 14.3125 C48.93246343 17.67841866 47.04235273 19.82297079 44.375 22.3125 C43.58738281 21.85359375 42.79976562 21.3946875 41.98828125 20.921875 C34.3216542 16.60315964 26.93675624 13.55228433 18.375 11.3125 C17.46077271 11.05098145 17.46077271 11.05098145 16.52807617 10.78417969 C-0.96663278 6.95157081 -21.73710727 10.38910437 -37.046875 19.59375 C-54.77688888 31.41375926 -66.15618426 44.94261215 -72.625 65.3125 C-72.99625 66.3025 -73.3675 67.2925 -73.75 68.3125 C-74.69967531 71.21639774 -74.69967531 71.21639774 -74.87109375 73.94140625 C-75.68751093 81.51090384 -75.68751093 81.51090384 -78.75390625 84.1328125 C-81.00851972 85.36773381 -83.21749113 86.41587633 -85.625 87.3125 C-84.72557976 61.4541681 -75.24977997 39.83357297 -56.4765625 21.7578125 C-40.1621852 7.76767525 -21.56833025 0.12075367 0 0 Z " fill="#151511" transform="translate(96.625,1.6875)"/>
<path d="M0 0 C5.18053159 1.8917184 8.54220459 4.43150332 11.3125 9.3125 C11.6528125 10.1478125 11.6528125 10.1478125 12 11 C11.34 11 10.68 11 10 11 C9.7525 11.70125 9.505 12.4025 9.25 13.125 C8 16 8 16 5.8125 18.875 C3.72345526 21.89367444 3.72345526 21.89367444 3.9375 25.4375 C5.06387354 29.21416422 6.49947581 31.38475239 9.0390625 34.32421875 C10 36 10 36 9.71484375 38.03515625 C8.86174764 40.38000512 7.95970702 42.69670314 7 45 C6.21625 44.79375 5.4325 44.5875 4.625 44.375 C3.75875 44.25125 2.8925 44.1275 2 44 C1.34 44.66 0.68 45.32 0 46 C-0.70125 45.4225 -1.4025 44.845 -2.125 44.25 C-4.91448963 41.99184834 -4.91448963 41.99184834 -7.75 40.25 C-10.51420661 38.3363185 -12.79465745 36.39878553 -15.25 34.125 C-19.77942953 30.00453088 -24.65139193 26.94787585 -30 24 C-29.67 23.34 -29.34 22.68 -29 22 C-26.4375 21.375 -26.4375 21.375 -24 21 C-24.78375 20.2575 -25.5675 19.515 -26.375 18.75 C-29 16 -29 16 -31 12 C-28.36 9.03 -25.72 6.06 -23 3 C-19.48817457 4.92806102 -16.3550691 6.70948892 -13.25 9.25 C-11.08039699 11.30697031 -11.08039699 11.30697031 -8 11 C-5.85068429 8.54785676 -5.85068429 8.54785676 -3.8125 5.5 C-3.09707031 4.4790625 -2.38164062 3.458125 -1.64453125 2.40625 C-1.10183594 1.6121875 -0.55914062 0.818125 0 0 Z " fill="#DDDCD4" transform="translate(195,39)"/>
<path d="M0 0 C0.94735519 0.00141495 1.89471039 0.0028299 2.87077332 0.00428772 C5.8865377 0.00987014 8.90222693 0.02241943 11.91796875 0.03515625 C13.9667958 0.04017352 16.01562402 0.04473603 18.06445312 0.04882812 C23.07815381 0.05983382 28.09179855 0.07708637 33.10546875 0.09765625 C32.44783526 1.76790785 31.77869397 3.433628 31.10546875 5.09765625 C30.70605576 6.11144348 30.30664276 7.12523071 29.89512634 8.16973877 C28.2594459 11.63047266 26.71758085 14.28745557 24.10546875 17.09765625 C19.23458343 18.75113626 14.49590425 18.50464071 9.421875 18.26953125 C7.99705687 18.2471206 6.5721456 18.23005273 5.14720154 18.21807861 C1.41443987 18.17247211 -2.31262634 18.05483891 -6.04315186 17.92163086 C-9.85675986 17.79837834 -13.67129833 17.7439661 -17.48632812 17.68359375 C-24.95831329 17.5552804 -32.42562149 17.35078937 -39.89453125 17.09765625 C-39.89453125 16.43765625 -39.89453125 15.77765625 -39.89453125 15.09765625 C-38.35327148 13.90844727 -38.35327148 13.90844727 -36.203125 12.6015625 C-35.42259766 12.12525391 -34.64207031 11.64894531 -33.83789062 11.15820312 C-33.01095703 10.66384766 -32.18402344 10.16949219 -31.33203125 9.66015625 C-30.53216797 9.16966797 -29.73230469 8.67917969 -28.90820312 8.17382812 C-19.15435409 2.27374475 -11.39317421 -0.06428247 0 0 Z " fill="#E3E2D8" transform="translate(105.89453125,62.90234375)"/>
<path d="M0 0 C2.29671512 2.02236348 4.6573257 3.47192073 7.2890625 5.015625 C7.2890625 5.345625 7.2890625 5.675625 7.2890625 6.015625 C4.6490625 6.015625 2.0090625 6.015625 -0.7109375 6.015625 C-1.06478516 4.90380859 -1.06478516 4.90380859 -1.42578125 3.76953125 C-4.98835388 -3.86455295 -14.12025348 -8.20014727 -21.7109375 -10.984375 C-22.7421875 -11.396875 -23.7734375 -11.809375 -24.8359375 -12.234375 C-28.37626715 -13.15793926 -31.06752221 -13.4480824 -34.7109375 -12.984375 C-40.02887036 -9.09320461 -44.44287045 -1.94875303 -46.453125 4.3359375 C-47.25921497 6.79043618 -47.86640961 8.18446326 -49.7109375 10.015625 C-52.6292962 10.92248071 -55.48275806 11.48572303 -58.50317383 11.93530273 C-66.97216077 13.21435074 -75.16530392 16.28064769 -82.515625 20.703125 C-84.7109375 22.015625 -84.7109375 22.015625 -86.7109375 22.015625 C-86.7109375 22.675625 -86.7109375 23.335625 -86.7109375 24.015625 C-82.4209375 24.015625 -78.1309375 24.015625 -73.7109375 24.015625 C-73.7109375 28.015625 -73.7109375 28.015625 -75.9609375 30.640625 C-79.82890279 33.98114047 -82.32901816 35.2915638 -87.4609375 35.140625 C-88.26015625 35.12257812 -89.059375 35.10453125 -89.8828125 35.0859375 C-90.48609375 35.06273437 -91.089375 35.03953125 -91.7109375 35.015625 C-88.86437881 33.57284868 -85.99454075 32.20387396 -83.0859375 30.890625 C-82.30992188 30.53742188 -81.53390625 30.18421875 -80.734375 29.8203125 C-78.7109375 29.015625 -78.7109375 29.015625 -76.7109375 29.015625 C-77.0409375 28.355625 -77.3709375 27.695625 -77.7109375 27.015625 C-86.2909375 27.015625 -94.8709375 27.015625 -103.7109375 27.015625 C-104.0409375 25.365625 -104.3709375 23.715625 -104.7109375 22.015625 C-76.61167621 11.47082984 -76.61167621 11.47082984 -69.7109375 12.015625 C-70.0409375 10.365625 -70.3709375 8.715625 -70.7109375 7.015625 C-86.5509375 6.685625 -102.3909375 6.355625 -118.7109375 6.015625 C-118.7109375 5.685625 -118.7109375 5.355625 -118.7109375 5.015625 C-97.2609375 5.015625 -75.8109375 5.015625 -53.7109375 5.015625 C-53.0509375 3.035625 -52.3909375 1.055625 -51.7109375 -0.984375 C-50.55323914 -3.13737964 -49.34363439 -5.26321351 -48.0859375 -7.359375 C-47.13847656 -8.94878906 -47.13847656 -8.94878906 -46.171875 -10.5703125 C-45.68976563 -11.36695312 -45.20765625 -12.16359375 -44.7109375 -12.984375 C-45.83121338 -13.014104 -45.83121338 -13.014104 -46.97412109 -13.04443359 C-50.34509355 -13.13945711 -53.71542679 -13.24922759 -57.0859375 -13.359375 C-58.2615625 -13.3903125 -59.4371875 -13.42125 -60.6484375 -13.453125 C-61.76992187 -13.49179687 -62.89140625 -13.53046875 -64.046875 -13.5703125 C-65.60220947 -13.61744385 -65.60220947 -13.61744385 -67.18896484 -13.66552734 C-69.7109375 -13.984375 -69.7109375 -13.984375 -71.7109375 -15.984375 C-69.76702925 -17.92828325 -66.11604438 -17.26195873 -63.45703125 -17.3359375 C-62.72275406 -17.35909027 -61.98847687 -17.38224304 -61.23194885 -17.40609741 C-59.67089994 -17.45383578 -58.1097724 -17.4990575 -56.54858398 -17.54199219 C-54.18245243 -17.60842005 -51.81690724 -17.68646205 -49.45117188 -17.765625 C-47.93231259 -17.81060789 -46.41343265 -17.85489964 -44.89453125 -17.8984375 C-43.84560951 -17.93428452 -43.84560951 -17.93428452 -42.77549744 -17.97085571 C-25.25045789 -18.40760301 -12.54542067 -11.9999676 0 0 Z " fill="#10100C" transform="translate(183.7109375,75.984375)"/>
<path d="M0 0 C1.65536991 0.02196961 3.31065695 0.0508077 4.96582031 0.08496094 C5.84038879 0.10145691 6.71495728 0.11795288 7.61602783 0.13494873 C9.47226933 0.17252916 11.32845255 0.21308524 13.18457031 0.25634766 C16.01783476 0.31876076 18.85092586 0.36039289 21.68457031 0.40136719 C23.48668204 0.44044333 25.28876722 0.48076798 27.09082031 0.52246094 C27.936828 0.53198792 28.78283569 0.54151489 29.65447998 0.55133057 C34.31115777 0.68580374 37.53863343 1.01209176 41.29394531 4.06933594 C42.60644531 6.75683594 42.60644531 6.75683594 43.29394531 9.06933594 C40.7220244 12.70902185 37.83781054 15.60334637 33.30810547 16.43310547 C22.86392421 17.24182103 5.32781044 17.76927465 -3.70605469 12.06933594 C-5.86668695 9.29138017 -5.69721539 7.9650322 -5.39355469 4.38183594 C-4.50159658 0.08421959 -4.50159658 0.08421959 0 0 Z " fill="#121311" transform="translate(19.7060546875,106.9306640625)"/>
<path d="M0 0 C3.89006773 1.38780795 6.96558708 3.2152227 10.3125 5.625 C11.19550781 6.25664062 12.07851562 6.88828125 12.98828125 7.5390625 C13.65214844 8.02117188 14.31601563 8.50328125 15 9 C11.72243905 15.28199181 7.51363632 20.55515231 3 26 C-1.17861902 24.45936134 -4.44336291 22.41706119 -8.03515625 19.828125 C-9.98618459 18.7617635 -9.98618459 18.7617635 -12.04296875 19.6015625 C-14.29690938 21.21216279 -15.64901729 22.86906982 -17.25 25.125 C-17.77078125 25.84945312 -18.2915625 26.57390625 -18.828125 27.3203125 C-19.21484375 27.87460937 -19.6015625 28.42890625 -20 29 C-23.21852831 28.36934243 -25.50801069 27.21979305 -28.25 25.4375 C-28.95640625 24.98246094 -29.6628125 24.52742188 -30.390625 24.05859375 C-30.92171875 23.70925781 -31.4528125 23.35992187 -32 23 C-30.17495091 19.07699728 -27.81729174 16.26212728 -25 13 C-23.98679688 13.32484375 -23.98679688 13.32484375 -22.953125 13.65625 C-22.06109375 13.9346875 -21.1690625 14.213125 -20.25 14.5 C-19.36828125 14.7784375 -18.4865625 15.056875 -17.578125 15.34375 C-14.79732471 16.16445285 -14.79732471 16.16445285 -11 16 C-9.25870944 13.72384203 -7.81579828 11.57915974 -6.375 9.125 C-2.14635678 2.14635678 -2.14635678 2.14635678 0 0 Z " fill="#151611" transform="translate(193,11)"/>
<path d="M0 0 C7.16269149 1.72458477 13.00624751 5.62211271 18 11 C17.67 11.99 17.34 12.98 17 14 C14.07569482 14.85330193 11.29552308 15.50462705 8.3125 16.0625 C7.4563208 16.23168945 6.6001416 16.40087891 5.71801758 16.57519531 C-12.81268504 20.16479489 -12.81268504 20.16479489 -22 20 C-18.65930355 7.60425791 -13.80601499 -1.33341898 0 0 Z " fill="#12130F" transform="translate(160,66)"/>
<path d="M0 0 C3.36448872 0.28838475 4.93789234 0.95120113 7.625 3.0625 C14.13817825 11.1182731 13.72754231 20.1432966 13 30 C12.17282455 34.75144969 10.98552762 37.90496931 7.75 41.5 C4.26592762 43.40040312 1.98972327 44.14249012 -2 44 C-5 41.375 -5 41.375 -7 38 C-6.8125 35.125 -6.8125 35.125 -6 33 C-5.34 33.33 -4.68 33.66 -4 34 C-4 35.65 -4 37.3 -4 39 C-1.69 39 0.62 39 3 39 C2.01 36.03 1.02 33.06 0 30 C-1.32 30.99 -2.64 31.98 -4 33 C-5.24021265 30.5195747 -4.90141437 29.40160851 -4.5 26.6875 C-4.05616559 23.20424257 -4.00740891 20.41892486 -5 17 C-4.113125 17.33 -3.22625 17.66 -2.3125 18 C0.7473426 18.92372607 2.84973472 19.43753684 6 19 C8.36139302 16.10538099 8.36139302 16.10538099 7.8125 12.4375 C7.35160238 8.74174248 7.35160238 8.74174248 4 7 C3.95101562 7.63808594 3.90203125 8.27617188 3.8515625 8.93359375 C3.77679688 9.75988281 3.70203125 10.58617188 3.625 11.4375 C3.55539063 12.26121094 3.48578125 13.08492187 3.4140625 13.93359375 C3.27742187 14.61550781 3.14078125 15.29742187 3 16 C2.34 16.33 1.68 16.66 1 17 C1 12.71 1 8.42 1 4 C0.01 3.67 -0.98 3.34 -2 3 C-1.34 2.01 -0.68 1.02 0 0 Z " fill="#D4D4D1" transform="translate(125,104)"/>
<path d="M0 0 C0.76876465 0.01981934 1.5375293 0.03963867 2.32958984 0.06005859 C4.04045172 0.1074239 5.75108538 0.1635879 7.46142578 0.22705078 C10.56790675 0.32015477 13.66952465 0.33203862 16.77734375 0.33984375 C18.997423 0.37048678 21.21747696 0.40302404 23.4375 0.4375 C24.49155029 0.43451904 25.54560059 0.43153809 26.6315918 0.4284668 C35.73213199 0.66415694 40.11659096 4.02239242 46.3125 10.3125 C45.6525 10.6425 44.9925 10.9725 44.3125 11.3125 C44.3125 11.9725 44.3125 12.6325 44.3125 13.3125 C48.6025 13.3125 52.8925 13.3125 57.3125 13.3125 C57.3125 13.6425 57.3125 13.9725 57.3125 14.3125 C52.0325 14.3125 46.7525 14.3125 41.3125 14.3125 C41.3125 14.9725 41.3125 15.6325 41.3125 16.3125 C38.29017903 19.76658111 34.96171237 22.01583695 30.42431641 22.83203125 C27.13837866 22.97585845 23.91161126 22.93839032 20.625 22.8125 C19.4697583 22.78696045 18.3145166 22.7614209 17.12426758 22.73510742 C-3.1425537 22.15883359 -3.1425537 22.15883359 -8.875 18 C-11.43325121 14.20673096 -12.7518617 11.88936161 -12.5625 7.25 C-10.53854183 0.4552833 -6.49235167 -0.26889696 0 0 Z M-6.6875 3.3125 C-9.05471366 6.19970119 -9.05471366 6.19970119 -8.4375 9.8125 C-7.89250944 13.40370499 -7.89250944 13.40370499 -5.6875 16.3125 C0.55054831 18.35404308 6.7804306 18.96712622 13.3125 19.3125 C14.0456543 19.36245117 14.77880859 19.41240234 15.53417969 19.46386719 C25.72173643 20.39391016 25.72173643 20.39391016 35.3125 17.75 C37.24071565 16.04215185 38.82861076 14.41244433 40.3125 12.3125 C39.43156031 9.34933924 38.73063612 7.65162267 36.3034668 5.68310547 C32.21611602 3.8100839 28.5948863 3.7787422 24.14453125 3.6953125 C23.26850754 3.67024628 22.39248383 3.64518005 21.48991394 3.61935425 C19.64522421 3.57052166 17.80033025 3.52893082 15.95532227 3.49414062 C13.12347547 3.43746949 10.29380857 3.34912452 7.46289062 3.2578125 C5.66931604 3.21424324 3.87569565 3.17251241 2.08203125 3.1328125 C1.23308792 3.10486603 0.38414459 3.07691956 -0.49052429 3.04812622 C-3.11129153 2.97685921 -3.11129153 2.97685921 -6.6875 3.3125 Z " fill="#C7C8C5" transform="translate(22.6875,103.6875)"/>
<path d="M0 0 C2.3125 0.125 2.3125 0.125 5 1 C7.25235406 4.53941352 8.39175476 7.86393236 9 12 C9.66 10.68 10.32 9.36 11 8 C11.625 10.875 11.625 10.875 12 14 C11.34 14.66 10.68 15.32 10 16 C9.62276444 18.33628839 9.494845 20.64304686 9.34375 23.00390625 C9.2303125 23.66261719 9.116875 24.32132813 9 25 C8.34 25.33 7.68 25.66 7 26 C5.95191959 27.97522846 4.9479589 29.97481509 4 32 C1.6875 32.3125 1.6875 32.3125 -1 32 C-4.84857716 27.53748315 -4.48245749 22.7079033 -4.4375 17.125 C-4.45748047 16.25230469 -4.47746094 15.37960938 -4.49804688 14.48046875 C-4.49352778 8.47007507 -3.41078003 4.95745057 0 0 Z " fill="#BFBEB7" transform="translate(188,99)"/>
<path d="M0 0 C1.953125 0.6171875 1.953125 0.6171875 4 2 C4.609375 4.8203125 4.609375 4.8203125 4.75 8.125 C4.80671875 9.22070312 4.8634375 10.31640625 4.921875 11.4453125 C4.96054688 12.70988281 4.96054688 12.70988281 5 14 C5.66 11.03 6.32 8.06 7 5 C8.32 5.66 9.64 6.32 11 7 C11.9375 10.375 11.9375 10.375 12 14 C10.5625 16.4375 10.5625 16.4375 9 18 C1.25 17.125 1.25 17.125 -1 16 C-0.87431641 16.88751953 -0.87431641 16.88751953 -0.74609375 17.79296875 C-0.19110576 22.09939457 0.23226652 25.75552644 -1 30 C0.32 29.01 1.64 28.02 3 27 C6 33.625 6 33.625 6 37 C3.69 37 1.38 37 -1 37 C-1.33 35.35 -1.66 33.7 -2 32 C-2.99 32.66 -3.98 33.32 -5 34 C-8.88089083 24.78288428 -7.16130496 15.20614333 -4 6 C-2.82276858 3.73836545 -1.60620887 1.99391447 0 0 Z " fill="#BABAB5" transform="translate(122,106)"/>
<path d="M0 0 C4.20291802 3.24770938 7.57570736 6.15141471 10 11 C8.81303632 15.40979545 6.13605199 18.76195971 3.375 22.3125 C2.95476562 22.86228516 2.53453125 23.41207031 2.1015625 23.97851562 C1.07279961 25.32292168 0.0370991 26.66201413 -1 28 C-3.53879651 25.50535648 -5.95103527 22.96695832 -8.25 20.25 C-9.03117188 19.32960938 -9.03117188 19.32960938 -9.828125 18.390625 C-10.21484375 17.93171875 -10.6015625 17.4728125 -11 17 C-9.4022331 13.62871185 -7.5015324 10.52147678 -5.5 7.375 C-4.8915625 6.41335937 -4.283125 5.45171875 -3.65625 4.4609375 C-2 2 -2 2 0 0 Z " fill="#141410" transform="translate(219,32)"/>
<path d="M0 0 C5.18053159 1.8917184 8.54220459 4.43150332 11.3125 9.3125 C11.6528125 10.1478125 11.6528125 10.1478125 12 11 C11.34 11 10.68 11 10 11 C9.773125 11.66 9.54625 12.32 9.3125 13 C7.59428642 16.92734533 5.33225393 20.41260178 3 24 C-0.3702985 22.87656717 -1.32859216 21.82104006 -3.625 19.1875 C-4.23601562 18.50042969 -4.84703125 17.81335938 -5.4765625 17.10546875 C-7.94481108 13.69422263 -7.94481108 13.69422263 -8 11 C-6.34765625 8.203125 -6.34765625 8.203125 -4.0625 5.25 C-3.31097656 4.26515625 -2.55945313 3.2803125 -1.78515625 2.265625 C-0.90150391 1.14414062 -0.90150391 1.14414062 0 0 Z " fill="#151410" transform="translate(195,39)"/>
<path d="M0 0 C0.495 1.485 0.495 1.485 1 3 C-8.24149287 7.59842399 -16.62116942 9.16055924 -26.875 9.3125 C-27.61298828 9.33022461 -28.35097656 9.34794922 -29.11132812 9.36621094 C-33.35740774 9.36037306 -35.9314733 9.04442832 -39 6 C-38.67 5.01 -38.34 4.02 -38 3 C-25.20602331 0.75637987 -12.98924825 -0.42356244 0 0 Z " fill="#D3D4CD" transform="translate(106,102)"/>
<path d="M0 0 C4.83540096 2.61111652 8.87103901 5.37457083 13 9 C11.44298069 13.67105792 8.91552627 17.08705685 6 21 C2.47761953 19.43632643 -0.27123994 17.30504111 -3.25 14.875 C-4.14203125 14.15054688 -5.0340625 13.42609375 -5.953125 12.6796875 C-6.62859375 12.12539063 -7.3040625 11.57109375 -8 11 C-6.63629701 8.00779732 -5.05091917 5.70973471 -2.875 3.25 C-2.33617187 2.63640625 -1.79734375 2.0228125 -1.2421875 1.390625 C-0.62730469 0.70226563 -0.62730469 0.70226563 0 0 Z " fill="#181612" transform="translate(172,42)"/>
<path d="M0 0 C6.14154225 0.58490879 12.00679849 1.54066252 18 3 C15.6163187 7.34170523 13.21880117 11.2064129 10 15 C4.30694567 13.76123355 -1.35370013 12.43723997 -7 11 C-5.22054913 6.95579349 -2.60470327 3.53921513 0 0 Z " fill="#151411" transform="translate(159,8)"/>
<path d="M0 0 C6.48944327 0.53638282 12.9336923 1.22752116 19.38574219 2.10375977 C29.61193591 3.48823694 39.72330835 4.40466636 50.04418945 4.62109375 C50.90101318 4.64429688 51.75783691 4.6675 52.640625 4.69140625 C53.76259277 4.70989624 53.76259277 4.70989624 54.90722656 4.72875977 C57.28087882 5.03640415 58.93022212 5.82500032 61 7 C61 7.66 61 8.32 61 9 C49.42466619 9.36006223 38.08392376 8.90543066 26.5625 7.6875 C25.41555664 7.56979248 24.26861328 7.45208496 23.08691406 7.33081055 C15.23351466 6.44823482 7.66074092 4.93197644 0 3 C0 2.01 0 1.02 0 0 Z " fill="#BDBDBA" transform="translate(13,133)"/>
<path d="M0 0 C7.58464841 2.63062489 13.32238666 7.5095655 19.375 12.625 C18.715 12.955 18.055 13.285 17.375 13.625 C17.045 14.285 16.715 14.945 16.375 15.625 C15.99988281 15.15449219 15.62476563 14.68398437 15.23828125 14.19921875 C10.3328695 8.23117372 6.07888393 5.26681133 -1.625 3.625 C-6.16277337 3.34872765 -10.2871852 3.17906173 -14.625 4.625 C-15.72028496 6.41793509 -15.72028496 6.41793509 -16.625 8.625 C-17.26308594 9.8315625 -17.26308594 9.8315625 -17.9140625 11.0625 C-18.35492188 11.908125 -18.79578125 12.75375 -19.25 13.625 C-19.91902344 14.8934375 -19.91902344 14.8934375 -20.6015625 16.1875 C-21.883088 18.79907626 -21.883088 18.79907626 -21.625 22.625 C-25.375 23.75 -25.375 23.75 -27.625 22.625 C-25.32446718 14.11302857 -20.67738807 6.01363185 -14.625 -0.375 C-9.89902537 -2.73798731 -4.8546919 -1.36779018 0 0 Z " fill="#C9C7C2" transform="translate(161.625,63.375)"/>
<path d="M0 0 C3.36448872 0.28838475 4.93789234 0.95120113 7.625 3.0625 C12.64453278 9.27086949 13.26049429 14.6977638 13.3125 22.375 C13.31805908 23.08954346 13.32361816 23.80408691 13.3293457 24.5402832 C13.25669339 29.74330661 13.25669339 29.74330661 11 32 C11 28.7 11 25.4 11 22 C8.03 22.33 5.06 22.66 2 23 C1.67 23.99 1.34 24.98 1 26 C0.01 25.67 -0.98 25.34 -2 25 C-1.67 23.02 -1.34 21.04 -1 19 C0.11375 19.061875 1.2275 19.12375 2.375 19.1875 C3.57125 19.125625 4.7675 19.06375 6 19 C8.36139302 16.10538099 8.36139302 16.10538099 7.8125 12.4375 C7.35160238 8.74174248 7.35160238 8.74174248 4 7 C3.95101562 7.63808594 3.90203125 8.27617188 3.8515625 8.93359375 C3.77679688 9.75988281 3.70203125 10.58617188 3.625 11.4375 C3.55539063 12.26121094 3.48578125 13.08492187 3.4140625 13.93359375 C3.27742187 14.61550781 3.14078125 15.29742187 3 16 C2.34 16.33 1.68 16.66 1 17 C1 12.71 1 8.42 1 4 C0.01 3.67 -0.98 3.34 -2 3 C-1.34 2.01 -0.68 1.02 0 0 Z " fill="#DCDAD8" transform="translate(125,104)"/>
<path d="M0 0 C6.18160604 0.53753096 11.326858 2.54582388 17 5 C14.75421558 8.40739705 12.48862878 11.76478258 10 15 C4.79186293 13.39749629 -0.04690498 11.25140683 -5 9 C-3.35 6.03 -1.7 3.06 0 0 Z " fill="#151411" transform="translate(142,29)"/>
<path d="M0 0 C0.495 0.99 0.495 0.99 1 2 C-10.22 2.33 -21.44 2.66 -33 3 C-31.31699331 4.68300669 -29.17991273 4.22809077 -26.87109375 4.31640625 C-25.31938477 4.37924805 -25.31938477 4.37924805 -23.73632812 4.44335938 C-22.64771484 4.48267578 -21.55910156 4.52199219 -20.4375 4.5625 C-19.34501953 4.60568359 -18.25253906 4.64886719 -17.12695312 4.69335938 C-14.41810436 4.79982068 -11.70916008 4.90183516 -9 5 C-9 5.33 -9 5.66 -9 6 C-29.79 6.495 -29.79 6.495 -51 7 C-51.33 6.01 -51.66 5.02 -52 4 C-52.66 4 -53.32 4 -54 4 C-54.33 4.66 -54.66 5.32 -55 6 C-55.66 5.34 -56.32 4.68 -57 4 C-38.67799625 -1.61214529 -18.9517475 -0.22682077 0 0 Z " fill="#25241D" transform="translate(146,57)"/>
<path d="M0 0 C3.0625 2.1875 3.0625 2.1875 5 5 C5.61875 5.845625 6.2375 6.69125 6.875 7.5625 C8 10 8 10 7.75 12.25 C7 14 7 14 6 15 C4.43827255 15.08685603 2.87270656 15.10702219 1.30859375 15.09765625 C0.36435547 15.09443359 -0.57988281 15.09121094 -1.55273438 15.08789062 C-2.54595703 15.07951172 -3.53917969 15.07113281 -4.5625 15.0625 C-5.55958984 15.05798828 -6.55667969 15.05347656 -7.58398438 15.04882812 C-10.05604849 15.03700007 -12.52799518 15.02051849 -15 15 C-15.33 14.34 -15.66 13.68 -16 13 C-9.73 12.67 -3.46 12.34 3 12 C-0.7557265 4.10445904 -0.7557265 4.10445904 -4.6484375 3.11328125 C-5.99808594 3.21189453 -5.99808594 3.21189453 -7.375 3.3125 C-8.80972656 3.41304688 -8.80972656 3.41304688 -10.2734375 3.515625 C-13.88685912 4.1575509 -16.700224 5.41885733 -20 7 C-20.99 6.67 -21.98 6.34 -23 6 C-16.15902118 -0.03615778 -8.94287444 -1.23090126 0 0 Z " fill="#CACAC8" transform="translate(94,124)"/>
<path d="M0 0 C-2.48862255 5.55154262 -5.34063173 7.39262202 -11 9.5625 C-16.93270777 11.77311614 -22.73410966 13.15868807 -29 14 C-27.47366594 9.72626462 -24.88154384 8.17575327 -21 6 C-17.79804115 4.74438469 -14.54456302 3.73285289 -11.25 2.75 C-10.38761719 2.481875 -9.52523437 2.21375 -8.63671875 1.9375 C-2.32007334 0 -2.32007334 0 0 0 Z " fill="#DCDDD8" transform="translate(174,110)"/>
<path d="M0 0 C5.875 0.875 5.875 0.875 7 2 C6.91036938 3.69141656 6.75422324 5.37959602 6.5625 7.0625 C6.46066406 7.98160156 6.35882813 8.90070313 6.25390625 9.84765625 C6.12822266 10.91306641 6.12822266 10.91306641 6 12 C7.32 11.01 8.64 10.02 10 9 C13 15.625 13 15.625 13 19 C10.69 19 8.38 19 6 19 C5.67 17.35 5.34 15.7 5 14 C4.01 14.66 3.02 15.32 2 16 C-0.27141454 10.60539047 -0.20413361 5.73842251 0 0 Z " fill="#B5B5B2" transform="translate(115,124)"/>
<path d="M0 0 C0.76812012 0.01289062 1.53624023 0.02578125 2.32763672 0.0390625 C12.64165464 0.30053889 22.92706888 1.34319414 33.1875 2.375 C33.1875 2.705 33.1875 3.035 33.1875 3.375 C19.9875 3.705 6.7875 4.035 -6.8125 4.375 C-7.9067809 10.85645503 -7.9067809 10.85645503 -7.8125 15.375 C-8.8025 15.375 -9.7925 15.375 -10.8125 15.375 C-12.84151001 11.31697998 -13.11323579 8.74175586 -11.8125 4.375 C-8.53648342 -0.14279843 -5.21962106 -0.18318477 0 0 Z " fill="#D7D7D3" transform="translate(22.8125,103.625)"/>
<path d="M0 0 C3.57885399 1.19295133 4.18134909 2.24467062 6.25 5.3125 C7.06210938 6.48232422 7.06210938 6.48232422 7.890625 7.67578125 C9 10 9 10 8.80078125 12.15234375 C7.70740006 14.67512083 6.021004 16.17457703 4 18 C3.01364163 16.58833114 2.03618745 15.17043816 1.0625 13.75 C0.51722656 12.96109375 -0.02804688 12.1721875 -0.58984375 11.359375 C-1.91884251 9.13578704 -2.70116991 7.56140074 -3 5 C-1.5625 2.25 -1.5625 2.25 0 0 Z " fill="#17160F" transform="translate(196,65)"/>
<path d="M0 0 C0.33 0.99 0.66 1.98 1 3 C0.37996094 3.18433594 -0.24007812 3.36867188 -0.87890625 3.55859375 C-7.80869106 5.82817393 -13.68288327 8.9937553 -19.78344727 12.91381836 C-23.17385491 15.05928601 -25.98464656 16.54960864 -30 17 C-28.62507618 13.68349046 -27.33293238 12.26186355 -24.2265625 10.4921875 C-23.1128125 9.84830078 -23.1128125 9.84830078 -21.9765625 9.19140625 C-21.20054688 8.75699219 -20.42453125 8.32257813 -19.625 7.875 C-18.85671875 7.43285156 -18.0884375 6.99070312 -17.296875 6.53515625 C-5.88503116 0 -5.88503116 0 0 0 Z " fill="#1D1C16" transform="translate(94,61)"/>
<path d="M0 0 C0 0.66 0 1.32 0 2 C-1.13695312 2.30292969 -2.27390625 2.60585937 -3.4453125 2.91796875 C-12.06053499 5.24422878 -20.47782942 7.76948943 -28.8515625 10.86328125 C-33.18225933 12.42684549 -37.57142623 13.7448973 -42 15 C-35.58982643 7.7078898 -24.00775592 5.21899088 -15 2.625 C-14.0920166 2.36227295 -13.1840332 2.0995459 -12.24853516 1.82885742 C-8.01813164 0.65610737 -4.41818576 -0.13758043 0 0 Z " fill="#AFB0AE" transform="translate(113,86)"/>
<path d="M0 0 C0.33 0.99 0.66 1.98 1 3 C2.88316159 4.10836423 2.88316159 4.10836423 5 5 C5.99 5.66 6.98 6.32 8 7 C7.34773438 7.24234375 6.69546875 7.4846875 6.0234375 7.734375 C-0.06381908 10.06872118 -5.33075821 12.33075821 -10 17 C-10.75 14.3125 -10.75 14.3125 -11 11 C-8.67624268 7.15686289 -5.99551352 4.99775676 -2 3 C-1.34 3 -0.68 3 0 3 C0 2.01 0 1.02 0 0 Z " fill="#D7D5CF" transform="translate(20,81)"/>
<path d="M0 0 C1.09658936 3.28976808 0.79953138 4.71303767 0 8 C1.32 6.35 2.64 4.7 4 3 C4 5.97 4 8.94 4 12 C3.01 12 2.02 12 1 12 C1 12.99 1 13.98 1 15 C1.99 15.33 2.98 15.66 4 16 C3.67 17.98 3.34 19.96 3 22 C2.34 20.68 1.68 19.36 1 18 C0.34 18 -0.32 18 -1 18 C-1 19.65 -1 21.3 -1 23 C-3.91829575 20.08170425 -3.30055517 17.81124085 -3.3125 13.75 C-3.32925781 12.44546875 -3.34601563 11.1409375 -3.36328125 9.796875 C-2.98454168 5.83843565 -2.00110838 3.40030025 0 0 Z " fill="#292A24" transform="translate(189,103)"/>
<path d="M0 0 C3.45809994 0.29640857 4.95510879 0.96346065 7.6875 3.1875 C10.14588907 6.17743266 11.35068334 8.18526463 12 12 C10.625 14.375 10.625 14.375 9 16 C8.5978125 14.329375 8.5978125 14.329375 8.1875 12.625 C7.34190981 8.78159049 7.34190981 8.78159049 4 7 C3.95101562 7.63808594 3.90203125 8.27617188 3.8515625 8.93359375 C3.77679688 9.75988281 3.70203125 10.58617188 3.625 11.4375 C3.55539063 12.26121094 3.48578125 13.08492187 3.4140625 13.93359375 C3.27742187 14.61550781 3.14078125 15.29742187 3 16 C2.34 16.33 1.68 16.66 1 17 C1 12.71 1 8.42 1 4 C0.01 3.67 -0.98 3.34 -2 3 C-1.34 2.01 -0.68 1.02 0 0 Z " fill="#D7D7D0" transform="translate(125,104)"/>
<path d="M0 0 C0.99 0.33 1.98 0.66 3 1 C3 1.66 3 2.32 3 3 C3.99 2.67 4.98 2.34 6 2 C6.3125 4.25 6.3125 4.25 6 7 C3.34900041 9.89199955 1.23594584 10.92416026 -2.5 12.125 C-6 12 -6 12 -9 9.375 C-11 6 -11 6 -10.8125 3.125 C-10.544375 2.42375 -10.27625 1.7225 -10 1 C-9.34 1.33 -8.68 1.66 -8 2 C-8 3.65 -8 5.3 -8 7 C-5.36 7.33 -2.72 7.66 0 8 C0 5.36 0 2.72 0 0 Z " fill="#D1CFC9" transform="translate(129,136)"/>
<path d="M0 0 C1.65 0.33 3.3 0.66 5 1 C4.74476126 2.62752231 4.47025506 4.25203196 4.1875 5.875 C4.03667969 6.77992187 3.88585937 7.68484375 3.73046875 8.6171875 C3 11 3 11 0 13 C0.33 10.36 0.66 7.72 1 5 C-1.35926392 9.61715321 -1.17092078 13.64961005 -1 18.6875 C-0.90660792 21.4822581 -0.90635632 24.19946857 -1 27 C-1.66 27.66 -2.32 28.32 -3 29 C-4.79519543 25.40960913 -4.27028409 21.26672328 -4.3125 17.3125 C-4.34150391 16.42626953 -4.37050781 15.54003906 -4.40039062 14.62695312 C-4.45909373 8.52634603 -3.485732 5.02577928 0 0 Z " fill="#C9CAC5" transform="translate(188,99)"/>
<path d="M0 0 C0.87527344 -0.01417969 1.75054687 -0.02835937 2.65234375 -0.04296875 C5.0625 0.1875 5.0625 0.1875 8.0625 2.1875 C8.0625 3.1775 8.0625 4.1675 8.0625 5.1875 C4.50204823 6.37431726 1.62441663 6.28439832 -2.125 6.25 C-3.39730469 6.24097656 -4.66960937 6.23195313 -5.98046875 6.22265625 C-7.44419922 6.20525391 -7.44419922 6.20525391 -8.9375 6.1875 C-6.97061466 0.70831942 -5.74171626 0.04215651 0 0 Z " fill="#B9B9B5" transform="translate(152.9375,75.8125)"/>
<path d="M0 0 C11.85955345 -1.07814122 20.81019086 4.75098947 29.578125 11.953125 C30.37734375 12.62859375 31.1765625 13.3040625 32 14 C31.01 14.495 31.01 14.495 30 15 C29.67 15.66 29.34 16.32 29 17 C28.62488281 16.52949219 28.24976563 16.05898437 27.86328125 15.57421875 C21.74005668 8.12455259 15.68776955 5.46294256 6.0625 4.375 C4.70890696 4.24393423 3.35490296 4.11674901 2 4 C2.99 3.34 3.98 2.68 5 2 C3.35 1.67 1.7 1.34 0 1 C0 0.67 0 0.34 0 0 Z " fill="#AEADA9" transform="translate(149,62)"/>
<path d="M0 0 C0.33 0 0.66 0 1 0 C1 2.31 1 4.62 1 7 C1.66 7 2.32 7 3 7 C3 4.69 3 2.38 3 0 C3.66 0 4.32 0 5 0 C6.78409802 3.06246747 7.22880021 5.22079273 7.125 8.75 C7.10695313 9.54921875 7.08890625 10.3484375 7.0703125 11.171875 C7.03550781 12.07679688 7.03550781 12.07679688 7 13 C6.01 13 5.02 13 4 13 C4.33 13.99 4.66 14.98 5 16 C0.125 14.125 0.125 14.125 -1 13 C-0.90982004 10.80949979 -0.75333792 8.621534 -0.5625 6.4375 C-0.46066406 5.23996094 -0.35882813 4.04242188 -0.25390625 2.80859375 C-0.17011719 1.88175781 -0.08632813 0.95492187 0 0 Z " fill="#3E3C3A" transform="translate(2,120)"/>
<path d="M0 0 C2.3671875 2.0234375 2.3671875 2.0234375 4 4 C3.01 4.495 3.01 4.495 2 5 C1.67 5.99 1.34 6.98 1 8 C0.61328125 7.34902344 0.2265625 6.69804687 -0.171875 6.02734375 C-1.83339249 3.78040053 -1.83339249 3.78040053 -4.453125 3.50390625 C-10.4788541 3.63014359 -14.58845399 4.40696754 -20 7 C-20.99 6.67 -21.98 6.34 -23 6 C-16.30669506 0.0941427 -8.79726804 -1.44579057 0 0 Z " fill="#BABBB7" transform="translate(94,124)"/>
<path d="M0 0 C11.36783648 -0.16938829 22.65384417 0.36077995 34 1 C34 1.33 34 1.66 34 2 C30.7 2.33 27.4 2.66 24 3 C24 3.33 24 3.66 24 4 C15.92970447 4.11547323 8.02332397 3.90041311 0 3 C0 2.01 0 1.02 0 0 Z " fill="#080806" transform="translate(40,141)"/>
<path d="M0 0 C1.72985242 0.11512153 3.45888751 0.24255677 5.1875 0.375 C6.15042969 0.44460937 7.11335938 0.51421875 8.10546875 0.5859375 C11.03153338 1.00451085 13.28366231 1.87113239 16 3 C18.66572015 3.49313497 21.29815717 3.72523632 24 4 C24 4.66 24 5.32 24 6 C15.5657073 6.45636453 8.14043404 5.17423358 0 3 C0 2.01 0 1.02 0 0 Z " fill="#CCCDCA" transform="translate(13,133)"/>
<path d="M0 0 C0.65355469 0.47050781 1.30710937 0.94101563 1.98046875 1.42578125 C5.77355478 3.40328923 9.1016914 3.77733187 13.3125 4.1875 C14.05306641 4.26935547 14.79363281 4.35121094 15.55664062 4.43554688 C17.36994923 4.63442588 19.18484969 4.81869827 21 5 C21 5.33 21 5.66 21 6 C19.35 6.33 17.7 6.66 16 7 C18.31 7.33 20.62 7.66 23 8 C23 8.33 23 8.66 23 9 C15.52448996 9.29315726 6.13671653 9.50771541 -0.390625 5.55078125 C-0.92171875 5.03902344 -1.4528125 4.52726562 -2 4 C-2 3.34 -2 2.68 -2 2 C-1.34 2 -0.68 2 0 2 C0 1.34 0 0.68 0 0 Z " fill="#B8BAB6" transform="translate(15,117)"/>
<path d="M0 0 C1.34362885 0.00031689 2.68728332 0.01162897 4.03076172 0.03173828 C4.73820526 0.03456818 5.4456488 0.03739807 6.17453003 0.04031372 C8.43667432 0.05151941 10.69842437 0.07662399 12.96044922 0.10205078 C14.49299559 0.11208011 16.02554816 0.12120604 17.55810547 0.12939453 C21.31737223 0.15145992 25.07634386 0.18599183 28.83544922 0.22705078 C29.33044922 1.21705078 29.33044922 1.21705078 29.83544922 2.22705078 C25.87762616 2.42652506 21.91919543 2.60940559 17.96044922 2.78955078 C16.85185547 2.845625 15.74326172 2.90169922 14.60107422 2.95947266 C7.9033991 3.25495832 1.48220914 3.12864099 -5.16455078 2.22705078 C-3.16455078 0.22705078 -3.16455078 0.22705078 0 0 Z " fill="#373933" transform="translate(117.16455078125,56.77294921875)"/>
<path d="M0 0 C10.89 0 21.78 0 33 0 C32.34 0.99 31.68 1.98 31 3 C28.14435888 3.28222596 25.53966673 3.37532562 22.6875 3.3125 C21.8845752 3.30412109 21.08165039 3.29574219 20.25439453 3.28710938 C13.37537083 3.15021338 6.75458957 2.33659723 0 1 C0 0.67 0 0.34 0 0 Z " fill="#DFE1DE" transform="translate(25,123)"/>
<path d="M0 0 C2.69504819 2.69504819 5 6.08360477 5 10 C4.38125 10.28875 3.7625 10.5775 3.125 10.875 C0.86674235 11.93720042 0.86674235 11.93720042 -1 14 C-1.66 11.36 -2.32 8.72 -3 6 C-3.66 6 -4.32 6 -5 6 C-5.33 6.66 -5.66 7.32 -6 8 C-6 6.68 -6 5.36 -6 4 C-4 2.25 -4 2.25 -2 1 C-1.67 1.33 -1.34 1.66 -1 2 C-0.67 1.34 -0.34 0.68 0 0 Z " fill="#201E1B" transform="translate(10,114)"/>
<path d="M0 0 C1.9375 0.5625 1.9375 0.5625 4 2 C4.75 5.625 4.75 5.625 5 9 C1.375 12 1.375 12 -2 12 C-1.85904936 10.3745692 -1.71207913 8.74965949 -1.5625 7.125 C-1.48128906 6.22007813 -1.40007812 5.31515625 -1.31640625 4.3828125 C-1 2 -1 2 0 0 Z " fill="#171513" transform="translate(129,111)"/>
<path d="M0 0 C2.79192205 -0.05380578 5.5828141 -0.09357669 8.375 -0.125 C9.1690625 -0.14175781 9.963125 -0.15851563 10.78125 -0.17578125 C12.85492015 -0.19335473 14.92883241 -0.10335168 17 0 C17.66 0.66 18.32 1.32 19 2 C18.34 2 17.68 2 17 2 C17 2.66 17 3.32 17 4 C5.12 3.67 -6.76 3.34 -19 3 C-19 2.67 -19 2.34 -19 2 C-12.73 1.67 -6.46 1.34 0 1 C0 0.67 0 0.34 0 0 Z " fill="#B5B5B2" transform="translate(41,105)"/>
<path d="M0 0 C2.31 0 4.62 0 7 0 C7.28571429 7.42857143 7.28571429 7.42857143 5 11 C1.87729874 8.48169253 1.05476902 7.2738451 0.25 3.25 C0.1675 2.1775 0.085 1.105 0 0 Z " fill="#131210" transform="translate(128,127)"/>
<path d="M0 0 C0 0.33 0 0.66 0 1 C-16.70842825 3.29612756 -16.70842825 3.29612756 -25 3 C-25 2.01 -25 1.02 -25 0 C-8.29157175 -1.33257403 -8.29157175 -1.33257403 0 0 Z " fill="#23241F" transform="translate(97,111)"/>
<path d="M0 0 C1.32 0.33 2.64 0.66 4 1 C3.12724774 4.81829114 1.56320189 6.63755833 -1.5625 8.8125 C-6.03303653 11.43740218 -9.93523749 11.52757943 -15 11 C-12.15344131 9.55722368 -9.28360325 8.18824896 -6.375 6.875 C-5.59898438 6.52179688 -4.82296875 6.16859375 -4.0234375 5.8046875 C-2 5 -2 5 0 5 C-0.33 4.01 -0.66 3.02 -1 2 C-0.67 1.34 -0.34 0.68 0 0 Z " fill="#1A1B17" transform="translate(107,100)"/>
<path d="M0 0 C1.85625 0.1546875 1.85625 0.1546875 3.75 0.3125 C2.35878255 3.0949349 0.44835788 3.86460065 -2.25 5.3125 C-2.91 5.3125 -3.57 5.3125 -4.25 5.3125 C-4.518125 5.951875 -4.78625 6.59125 -5.0625 7.25 C-6.25 9.3125 -6.25 9.3125 -9.25 10.3125 C-8.56635878 4.33063932 -6.42678166 0 0 0 Z " fill="#C5C3C1" transform="translate(151.25,62.6875)"/>
<path d="M0 0 C0 3.96 0 7.92 0 12 C-1.32 11.34 -2.64 10.68 -4 10 C-4.9375 6.5625 -4.9375 6.5625 -5 3 C-3.42599605 0.67647035 -2.82844233 0 0 0 Z " fill="#0D0E09" transform="translate(125,110)"/>
<path d="M0 0 C2.7972908 2.06756277 3.02692273 3.14440371 3.6875 6.6875 C3.790625 7.780625 3.89375 8.87375 4 10 C1.69 10 -0.62 10 -3 10 C-2.69201674 8.51988629 -2.378482 7.04092675 -2.0625 5.5625 C-1.88847656 4.73878906 -1.71445313 3.91507813 -1.53515625 3.06640625 C-1 1 -1 1 0 0 Z " fill="#131410" transform="translate(124,133)"/>
<path d="M0 0 C0.66 0.66 1.32 1.32 2 2 C1.34 3.65 0.68 5.3 0 7 C2.64 7 5.28 7 8 7 C8 7.33 8 7.66 8 8 C6.35 8 4.7 8 3 8 C3.33 9.32 3.66 10.64 4 12 C1.69 11.67 -0.62 11.34 -3 11 C-3.33 10.01 -3.66 9.02 -4 8 C-3.34 7.67 -2.68 7.34 -2 7 C-1.39938767 5.09821215 -1.39938767 5.09821215 -1 3 C-0.67 2.01 -0.34 1.02 0 0 Z " fill="#0C0B09" transform="translate(10,125)"/>
<path d="M0 0 C8.88156226 -0.77605884 8.88156226 -0.77605884 13.0625 2.125 C15.184071 5.27313761 15.91773476 7.2157991 16 11 C15.01 12.485 15.01 12.485 14 14 C13.34 13.34 12.68 12.68 12 12 C12 10.68 12 9.36 12 8 C10.75759314 4.82533557 10.75759314 4.82533557 8 3 C6.46331135 2.77532169 4.92031946 2.59203195 3.375 2.4375 C2.55773437 2.35371094 1.74046875 2.26992187 0.8984375 2.18359375 C0.27195313 2.12300781 -0.35453125 2.06242187 -1 2 C-0.67 1.34 -0.34 0.68 0 0 Z " fill="#292923" transform="translate(182,81)"/>
<path d="M0 0 C0.66 0.33 1.32 0.66 2 1 C2 1.66 2 2.32 2 3 C2.33 3.99 2.66 4.98 3 6 C2.34 6 1.68 6 1 6 C0.34 7.65 -0.32 9.3 -1 11 C-0.34 11.33 0.32 11.66 1 12 C-0.65 12 -2.3 12 -4 12 C-4.65234375 10.265625 -4.65234375 10.265625 -5 8 C-4.00390625 5.859375 -4.00390625 5.859375 -2.5625 3.75 C-2.08941406 3.04359375 -1.61632812 2.3371875 -1.12890625 1.609375 C-0.75636719 1.07828125 -0.38382813 0.5471875 0 0 Z " fill="#21201B" transform="translate(145,71)"/>
<path d="M0 0 C-0.33 7.26 -0.66 14.52 -1 22 C-3 20 -3 20 -3.22705078 18.02880859 C-3.21657715 17.24328613 -3.20610352 16.45776367 -3.1953125 15.6484375 C-3.18886719 14.79765625 -3.18242188 13.946875 -3.17578125 13.0703125 C-3.15902344 12.18085937 -3.14226562 11.29140625 -3.125 10.375 C-3.11597656 9.4778125 -3.10695312 8.580625 -3.09765625 7.65625 C-3.0740497 5.43723414 -3.0411231 3.21874923 -3 1 C-1 0 -1 0 0 0 Z " fill="#DBDAD5" transform="translate(3,104)"/>
<path d="M0 0 C1.78409802 3.06246747 2.22880021 5.22079273 2.125 8.75 C2.10695313 9.54921875 2.08890625 10.3484375 2.0703125 11.171875 C2.03550781 12.07679687 2.03550781 12.07679687 2 13 C1.01 13 0.02 13 -1 13 C-3.02892674 8.94214651 -3.16885197 6.3831949 -2 2 C-1.34 1.34 -0.68 0.68 0 0 Z " fill="#CAC9C4" transform="translate(13,106)"/>
<path d="M0 0 C2.475 0.99 2.475 0.99 5 2 C4.38461538 8.52307692 4.38461538 8.52307692 2.4375 10.9375 C1.963125 11.288125 1.48875 11.63875 1 12 C-0.3271261 8.0186217 -0.06915913 4.14954773 0 0 Z " fill="#1C1C1A" transform="translate(117,124)"/>
<path d="M0 0 C2.64 0 5.28 0 8 0 C8.33 1.32 8.66 2.64 9 4 C5.37 4.33 1.74 4.66 -2 5 C-1.34 3.35 -0.68 1.7 0 0 Z " fill="#E0DED9" transform="translate(146,77)"/>
<path d="M0 0 C7.02673515 0.50343987 14.01940909 1.04187968 21 2 C21 2.33 21 2.66 21 3 C19.02 3.33 17.04 3.66 15 4 C15 4.33 15 4.66 15 5 C12.03 5 9.06 5 6 5 C7.32 4.67 8.64 4.34 10 4 C10 3.34 10 2.68 10 2 C8.081875 2.061875 8.081875 2.061875 6.125 2.125 C3.9453125 2.1953125 3.9453125 2.1953125 2 2 C1.34 1.34 0.68 0.68 0 0 Z " fill="#A7A8A5" transform="translate(27,135)"/>
<path d="M0 0 C0.66 0 1.32 0 2 0 C3.84651134 3.11598788 4.38079379 5.38245897 4 9 C3.34 9.66 2.68 10.32 2 11 C1.01 11 0.02 11 -1 11 C-0.67 7.37 -0.34 3.74 0 0 Z " fill="#D1D0CE" transform="translate(5,120)"/>
<path d="M0 0 C-0.33 0.99 -0.66 1.98 -1 3 C-0.38125 2.79375 0.2375 2.5875 0.875 2.375 C1.926875 2.189375 1.926875 2.189375 3 2 C3.66 2.66 4.32 3.32 5 4 C3.39743892 4.50512244 1.79288208 5.00391627 0.1875 5.5 C-1.15248047 5.91765625 -1.15248047 5.91765625 -2.51953125 6.34375 C-5 7 -5 7 -8 7 C-6.47663111 3.31852519 -4.31953005 0 0 0 Z " fill="#C7C7C5" transform="translate(153,117)"/>
<path d="M0 0 C5.46616886 0.63071179 9.37724847 5.1759845 13 9 C10.36 9 7.72 9 5 9 C4.731875 8.2575 4.46375 7.515 4.1875 6.75 C3.05770579 4.13363446 1.79106798 2.19812889 0 0 Z " fill="#090A04" transform="translate(178,73)"/>
<path d="M0 0 C3.63 0 7.26 0 11 0 C10.34 0.66 9.68 1.32 9 2 C8.01 2 7.02 2 6 2 C6.33 3.32 6.66 4.64 7 6 C4 6 4 6 1.8125 4.125 C0 2 0 2 0 0 Z " fill="#BBBBB5" transform="translate(40,144)"/>
<path d="M0 0 C1.62580966 0.11398665 3.25067157 0.24155659 4.875 0.375 C5.77992188 0.44460937 6.68484375 0.51421875 7.6171875 0.5859375 C10 1 10 1 12 3 C7.32798795 4.20568053 2.78503708 4.09382426 -2 4 C-1.34 2.68 -0.68 1.36 0 0 Z " fill="#0B0A06" transform="translate(149,59)"/>
<path d="M0 0 C0 0.33 0 0.66 0 1 C-0.96421875 1.19335938 -1.9284375 1.38671875 -2.921875 1.5859375 C-4.81679687 1.97652344 -4.81679687 1.97652344 -6.75 2.375 C-8.00296875 2.63023438 -9.2559375 2.88546875 -10.546875 3.1484375 C-13.88493858 3.83075299 -13.88493858 3.83075299 -16.265625 5.1640625 C-18 6 -18 6 -21 5 C-14.84196486 -0.78482089 -7.96671692 -0.16258606 0 0 Z " fill="#CCCCCA" transform="translate(92,125)"/>
<path d="M0 0 C-1.28519565 2.86697492 -2.57129254 4.97607712 -5 7 C-5.66 7 -6.32 7 -7 7 C-7 6.01 -7 5.02 -7 4 C-9.31 4.33 -11.62 4.66 -14 5 C-11.35493484 3.23662322 -9.40786033 2.3439149 -6.4375 1.375 C-5.65246094 1.11460938 -4.86742187 0.85421875 -4.05859375 0.5859375 C-2 0 -2 0 0 0 Z " fill="#C2C3C0" transform="translate(174,110)"/>
<path d="M0 0 C0 0.66 0 1.32 0 2 C-11.52164009 5.62870159 -11.52164009 5.62870159 -17 4 C-11.88643979 1.01708988 -5.89517358 -0.36844835 0 0 Z " fill="#A0A19D" transform="translate(113,86)"/>
<path d="M0 0 C0.66 0 1.32 0 2 0 C3.625 2 3.625 2 5 4 C4.01 5.98 3.02 7.96 2 10 C0 9 0 9 -1.25 6.6875 C-2 4 -2 4 -1.125 1.6875 C-0.75375 1.130625 -0.3825 0.57375 0 0 Z " fill="#1B1C15" transform="translate(116,105)"/>
<path d="M0 0 C0.33 0.66 0.66 1.32 1 2 C3.64 1.67 6.28 1.34 9 1 C9.33 1.99 9.66 2.98 10 4 C4.06 4.495 4.06 4.495 -2 5 C-1.34 3.35 -0.68 1.7 0 0 Z " fill="#1A1913" transform="translate(140,81)"/>
<path d="M0 0 C0.33 0.99 0.66 1.98 1 3 C2.88316159 4.10836423 2.88316159 4.10836423 5 5 C5.99 5.66 6.98 6.32 8 7 C3.545 8.485 3.545 8.485 -1 10 C-0.67 8.02 -0.34 6.04 0 4 C-0.66 3.67 -1.32 3.34 -2 3 C-1.34 3 -0.68 3 0 3 C0 2.01 0 1.02 0 0 Z " fill="#CFCEC6" transform="translate(20,81)"/>
<path d="M0 0 C0.67417969 0.0721875 1.34835938 0.144375 2.04296875 0.21875 C2.70296875 1.20875 3.36296875 2.19875 4.04296875 3.21875 C-4.20703125 2.88875 -12.45703125 2.55875 -20.95703125 2.21875 C-20.95703125 1.88875 -20.95703125 1.55875 -20.95703125 1.21875 C-18.06128891 1.05035792 -15.16545451 0.88397615 -12.26953125 0.71875 C-11.04459961 0.64720703 -11.04459961 0.64720703 -9.79492188 0.57421875 C-8.21339829 0.48457774 -6.63151511 0.40102773 -5.04931641 0.32421875 C-3.36488352 0.23930918 -1.68197559 0.1244262 0 0 Z " fill="#B6B7B2" transform="translate(111.95703125,-0.21875)"/>
<path d="M0 0 C3 0 3 0 5 1 C5 1.66 5 2.32 5 3 C4.34 3 3.68 3 3 3 C2.95101562 3.63808594 2.90203125 4.27617188 2.8515625 4.93359375 C2.77679688 5.75988281 2.70203125 6.58617188 2.625 7.4375 C2.52058594 8.67306641 2.52058594 8.67306641 2.4140625 9.93359375 C2.27742187 10.61550781 2.14078125 11.29742187 2 12 C1.01 12.495 1.01 12.495 0 13 C0 8.71 0 4.42 0 0 Z " fill="#DCDDD7" transform="translate(126,108)"/>
<path d="M0 0 C2.475 0.495 2.475 0.495 5 1 C4.74476126 2.62752231 4.47025506 4.25203196 4.1875 5.875 C4.03667969 6.77992187 3.88585937 7.68484375 3.73046875 8.6171875 C3 11 3 11 0 13 C0.08378906 12.39671875 0.16757813 11.7934375 0.25390625 11.171875 C0.35574219 10.37265625 0.45757812 9.5734375 0.5625 8.75 C0.66691406 7.96109375 0.77132812 7.1721875 0.87890625 6.359375 C1.00027349 3.99467126 0.69633257 2.2488963 0 0 Z " fill="#CBCDC8" transform="translate(188,99)"/>
<path d="M0 0 C2.12563103 0.11376617 4.2505261 0.24135631 6.375 0.375 C8.15003906 0.47941406 8.15003906 0.47941406 9.9609375 0.5859375 C13 1 13 1 15 3 C10.38 3 5.76 3 1 3 C0.67 2.01 0.34 1.02 0 0 Z " fill="#E7E8E3" transform="translate(66,114)"/>
<path d="M0 0 C0.33 0.99 0.66 1.98 1 3 C-4.445 4.485 -4.445 4.485 -10 6 C-9.67 4.68 -9.34 3.36 -9 2 C-2.25 0 -2.25 0 0 0 Z " fill="#110F0D" transform="translate(94,61)"/>
<path d="M0 0 C2.31 0 4.62 0 7 0 C7.22211116 1.93596892 7.42722992 3.87389328 7.625 5.8125 C7.74101562 6.89144531 7.85703125 7.97039062 7.9765625 9.08203125 C8 12 8 12 6 15 C5.67 14.34 5.34 13.68 5 13 C4.34 12.67 3.68 12.34 3 12 C3.309375 11.484375 3.61875 10.96875 3.9375 10.4375 C5.29059287 7.33334577 5.61359424 4.34884993 6 1 C4.02 1 2.04 1 0 1 C0 0.67 0 0.34 0 0 Z " fill="#9A9995" transform="translate(129,126)"/>
<path d="M0 0 C0.33 0.66 0.66 1.32 1 2 C2.32 2 3.64 2 5 2 C5 2.66 5 3.32 5 4 C3.1875 5.0625 3.1875 5.0625 1 6 C0.01 5.67 -0.98 5.34 -2 5 C-2.33 4.34 -2.66 3.68 -3 3 C-3.99 3.495 -3.99 3.495 -5 4 C-5.66 3.34 -6.32 2.68 -7 2 C-4.69 1.34 -2.38 0.68 0 0 Z " fill="#1B1C16" transform="translate(102,90)"/>
<path d="M0 0 C-3 2 -3 2 -5 2 C-5 2.66 -5 3.32 -5 4 C-5.99 4.33 -6.98 4.66 -8 5 C-8.33 4.01 -8.66 3.02 -9 2 C-9.66 2 -10.32 2 -11 2 C-11.33 2.66 -11.66 3.32 -12 4 C-12.66 3.34 -13.32 2.68 -14 2 C-9.126739 0.4087311 -5.19209404 -0.21192221 0 0 Z " fill="#2F2F29" transform="translate(103,59)"/>
<path d="M0 0 C1.55078125 1.20703125 1.55078125 1.20703125 3 3 C2.85546875 5.26171875 2.85546875 5.26171875 2.1875 7.6875 C1.97480469 8.49574219 1.76210937 9.30398437 1.54296875 10.13671875 C1.36378906 10.75160156 1.18460938 11.36648437 1 12 C-0.65 12 -2.3 12 -4 12 C-2.68 11.67 -1.36 11.34 0 11 C-0.66 8.03 -1.32 5.06 -2 2 C-1.34 2 -0.68 2 0 2 C0 1.34 0 0.68 0 0 Z " fill="#AFAFA9" transform="translate(128,132)"/>
<path d="M0 0 C2.31 0.33 4.62 0.66 7 1 C6.0409375 1.6496875 6.0409375 1.6496875 5.0625 2.3125 C2.73253997 3.91239177 2.73253997 3.91239177 2 7 C1.01 6.67 0.02 6.34 -1 6 C-0.67 4.02 -0.34 2.04 0 0 Z " fill="#E9E9E5" transform="translate(124,123)"/>
<path d="M0 0 C0.66 1.32 1.32 2.64 2 4 C0.8125 5.9375 0.8125 5.9375 -1 8 C-2.65 8.33 -4.3 8.66 -6 9 C-4.02 6.03 -2.04 3.06 0 0 Z " fill="#1E1D17" transform="translate(219,32)"/>
<path d="M0 0 C1.9375 0.75 1.9375 0.75 4 2 C4.75 4.125 4.75 4.125 5 6 C3.02 6 1.04 6 -1 6 C-0.67 4.02 -0.34 2.04 0 0 Z " fill="#2D2C29" transform="translate(129,111)"/>
<path d="M0 0 C-0.33 0.33 -0.66 0.66 -1 1 C0.32 1.66 1.64 2.32 3 3 C-2.91260345 3.25706972 -8.23918159 2.2982126 -14 1 C-14 0.67 -14 0.34 -14 0 C-12.41773035 -0.19627391 -10.83410729 -0.38165538 -9.25 -0.5625 C-8.36828125 -0.66691406 -7.4865625 -0.77132812 -6.578125 -0.87890625 C-4.11567549 -0.99456676 -2.33461936 -0.73638695 0 0 Z " fill="#C5C6C0" transform="translate(85,114)"/>
<path d="M0 0 C0.33 0.99 0.66 1.98 1 3 C-0.9375 6.1875 -0.9375 6.1875 -3 9 C-3.33 8.34 -3.66 7.68 -4 7 C-4.66 6.67 -5.32 6.34 -6 6 C-2.25 1.125 -2.25 1.125 0 0 Z " fill="#0E0D08" transform="translate(138,139)"/>
<path d="M0 0 C0.99 0.33 1.98 0.66 3 1 C3 1.66 3 2.32 3 3 C3.99 2.67 4.98 2.34 6 2 C5.67 3.32 5.34 4.64 5 6 C3.35 6.33 1.7 6.66 0 7 C0 4.69 0 2.38 0 0 Z " fill="#E1E0D7" transform="translate(129,136)"/>
<path d="M0 0 C3.63 0.33 7.26 0.66 11 1 C7 4 7 4 3.25 3.6875 C2.1775 3.460625 1.105 3.23375 0 3 C0 2.01 0 1.02 0 0 Z " fill="#A9ACA7" transform="translate(13,133)"/>
<path d="M0 0 C0.33 0 0.66 0 1 0 C1 2.97 1 5.94 1 9 C-0.65 9 -2.3 9 -4 9 C-2.80100302 5.9168649 -1.52299523 2.93720508 0 0 Z " fill="#1A1A16" transform="translate(192,106)"/>
<path d="M0 0 C0.33 0.66 0.66 1.32 1 2 C-4.75 5 -4.75 5 -7 5 C-7.33 3.68 -7.66 2.36 -8 1 C-5.29120665 -0.35439668 -2.99066732 -0.06501451 0 0 Z " fill="#D1D2CD" transform="translate(109,109)"/>
<path d="M0 0 C2 3 2 3 1.625 5.6875 C1.41875 6.450625 1.2125 7.21375 1 8 C0.01 8 -0.98 8 -2 8 C-2.66 6.68 -3.32 5.36 -4 4 C-3.01 4 -2.02 4 -1 4 C-1.33 3.01 -1.66 2.02 -2 1 C-1.34 0.67 -0.68 0.34 0 0 Z " fill="#211F1E" transform="translate(137,104)"/>
<path d="M0 0 C2.02350324 3.03525486 2.32124018 4.19426202 2.625 7.6875 C2.69976562 8.49574219 2.77453125 9.30398437 2.8515625 10.13671875 C2.92503906 11.05904297 2.92503906 11.05904297 3 12 C2.01 12.495 2.01 12.495 1 13 C0.01 9.37 -0.98 5.74 -2 2 C-1.34 2 -0.68 2 0 2 C0 1.34 0 0.68 0 0 Z " fill="#ABA9A7" transform="translate(138,99)"/>
<path d="M0 0 C0.33 0.99 0.66 1.98 1 3 C-0.43359375 5.04296875 -0.43359375 5.04296875 -2.4375 7.1875 C-3.09621094 7.90292969 -3.75492188 8.61835937 -4.43359375 9.35546875 C-4.95050781 9.89816406 -5.46742187 10.44085938 -6 11 C-6.66 10.67 -7.32 10.34 -8 10 C-6.85500893 8.52018126 -5.708983 7.04116318 -4.5625 5.5625 C-3.60537109 4.32693359 -3.60537109 4.32693359 -2.62890625 3.06640625 C-1 1 -1 1 0 0 Z " fill="#C7C9BF" transform="translate(42,34)"/>
<path d="M0 0 C0.33 0 0.66 0 1 0 C0.64989059 8.19256018 0.64989059 8.19256018 -2.0625 11.5625 C-2.701875 12.036875 -3.34125 12.51125 -4 13 C-4.99 12.01 -5.98 11.02 -7 10 C-6.06414062 9.89365234 -6.06414062 9.89365234 -5.109375 9.78515625 C-2.80770679 9.19995468 -2.80770679 9.19995468 -1.953125 6.93359375 C-1.72109375 6.10988281 -1.4890625 5.28617187 -1.25 4.4375 C-1.00765625 3.61121094 -0.7653125 2.78492187 -0.515625 1.93359375 C-0.34546875 1.29550781 -0.1753125 0.65742187 0 0 Z " fill="#32312B" transform="translate(195,121)"/>
<path d="M0 0 C-1 2 -1 2 -3.25 3.125 C-6.01613295 4.00513321 -8.12048351 4.1645438 -11 4 C-7.95841042 -0.56238437 -5.1474794 -0.11438843 0 0 Z " fill="#C6C7C0" transform="translate(99,90)"/>
<path d="M0 0 C1.0625 1.875 1.0625 1.875 2 4 C1.67 4.66 1.34 5.32 1 6 C1.66 6 2.32 6 3 6 C3.33 7.32 3.66 8.64 4 10 C3.34 9.67 2.68 9.34 2 9 C2 8.34 2 7.68 2 7 C-0.475 6.01 -0.475 6.01 -3 5 C-1.125 1.125 -1.125 1.125 0 0 Z " fill="#B6B6AE" transform="translate(198,34)"/>
<path d="M0 0 C1.98 0.99 3.96 1.98 6 3 C5.67 4.98 5.34 6.96 5 9 C2.5 6.75 2.5 6.75 0 4 C0 2.68 0 1.36 0 0 Z " fill="#12120C" transform="translate(187,116)"/>
<path d="M0 0 C0 0.66 0 1.32 0 2 C0.66 2.33 1.32 2.66 2 3 C-1.3 3 -4.6 3 -8 3 C-8 2.34 -8 1.68 -8 1 C-5.29120665 -0.35439668 -2.99066732 -0.06501451 0 0 Z " fill="#0C0B06" transform="translate(106,60)"/>
<path d="M0 0 C2.31 0 4.62 0 7 0 C6.67 1.32 6.34 2.64 6 4 C6 3.01 6 2.02 6 1 C5.34 2.32 4.68 3.64 4 5 C2.68 4.67 1.36 4.34 0 4 C0 2.68 0 1.36 0 0 Z " fill="#090807" transform="translate(128,127)"/>
<path d="M0 0 C0.66 0.66 1.32 1.32 2 2 C4.57061311 2.64767793 4.57061311 2.64767793 7 3 C6.01 3.495 6.01 3.495 5 4 C5 4.99 5 5.98 5 7 C3.35 6.67 1.7 6.34 0 6 C0 4.02 0 2.04 0 0 Z " fill="#BCBDB8" transform="translate(116,118)"/>
<path d="M0 0 C1.125 1.6875 1.125 1.6875 2 4 C1.3125 6.6875 1.3125 6.6875 0 9 C-0.99 9.33 -1.98 9.66 -3 10 C-2.25 3.375 -2.25 3.375 0 0 Z " fill="#B4B7B2" transform="translate(187,100)"/>
<path d="M0 0 C0.33 0.99 0.66 1.98 1 3 C1.66 3.33 2.32 3.66 3 4 C1.25 5.5625 1.25 5.5625 -1 7 C-3.25 6.6875 -3.25 6.6875 -5 6 C-3.74821404 3.49642808 -2.00018842 1.93566621 0 0 Z " fill="#D5D6C9" transform="translate(221,55)"/>
<path d="M0 0 C2.97 0.495 2.97 0.495 6 1 C4.1875 4 4.1875 4 2 7 C1.01 7 0.02 7 -1 7 C-0.01 5.35 0.98 3.7 2 2 C1.34 2 0.68 2 0 2 C0 1.34 0 0.68 0 0 Z " fill="#0F0E09" transform="translate(153,33)"/>
<path d="M0 0 C-0.33 0.99 -0.66 1.98 -1 3 C-3.64 3 -6.28 3 -9 3 C-9 2.34 -9 1.68 -9 1 C-5.8035914 -0.06546953 -3.34252724 -0.07427838 0 0 Z " fill="#E5E5E1" transform="translate(103,111)"/>
<path d="M0 0 C0.66 0.33 1.32 0.66 2 1 C2 2.32 2 3.64 2 5 C-1.75 6.125 -1.75 6.125 -4 5 C-3.6875 3.0625 -3.6875 3.0625 -3 1 C-2.01 0.67 -1.02 0.34 0 0 Z " fill="#C3C1BB" transform="translate(138,81)"/>
<path d="M0 0 C3.3 0.33 6.6 0.66 10 1 C10 1.33 10 1.66 10 2 C4.06 2.495 4.06 2.495 -2 3 C-1.34 2.01 -0.68 1.02 0 0 Z " fill="#DEDFD7" transform="translate(81,0)"/>
<path d="M0 0 C0.66 0.33 1.32 0.66 2 1 C2 2.65 2 4.3 2 6 C2.99 6.33 3.98 6.66 5 7 C3.68 7.33 2.36 7.66 1 8 C-1 5 -1 5 -0.625 2.3125 C-0.41875 1.549375 -0.2125 0.78625 0 0 Z " fill="#DEDEDB" transform="translate(119,137)"/>
<path d="M0 0 C1.625 1.625 1.625 1.625 3 4 C2.1875 7.25 2.1875 7.25 1 10 C0.67 10 0.34 10 0 10 C-0.66 7.36 -1.32 4.72 -2 2 C-1.34 2 -0.68 2 0 2 C0 1.34 0 0.68 0 0 Z " fill="#C9C7C6" transform="translate(134,110)"/>
<path d="M0 0 C2.97 0 5.94 0 9 0 C9 0.99 9 1.98 9 3 C6.03 3 3.06 3 0 3 C0 2.01 0 1.02 0 0 Z " fill="#40413A" transform="translate(72,111)"/>
<path d="M0 0 C1.74627478 2.61941217 2.38722388 4.03824877 3 7 C0.69 6.34 -1.62 5.68 -4 5 C-2.68 3.35 -1.36 1.7 0 0 Z " fill="#C3C2BE" transform="translate(193,86)"/>
<path d="M0 0 C3.057952 1.73559438 5.63379989 3.38472619 8 6 C7.01 6.33 6.02 6.66 5 7 C2.7363436 5.59554165 0.9791315 3.8032087 -1 2 C-0.67 1.34 -0.34 0.68 0 0 Z " fill="#161512" transform="translate(172,67)"/>
<path d="M0 0 C0.99 0 1.98 0 3 0 C3 2.64 3 5.28 3 8 C2.01 8.495 2.01 8.495 1 9 C0.67 6.03 0.34 3.06 0 0 Z " fill="#DCDBD5" transform="translate(192,117)"/>
<path d="M0 0 C1.98 0 3.96 0 6 0 C4.72485508 2.55028983 3.59658703 2.93081711 1 4 C0.01 4 -0.98 4 -2 4 C-1.34 2.68 -0.68 1.36 0 0 Z " fill="#E4E3DD" transform="translate(149,63)"/>
<path d="M0 0 C6.75 -0.125 6.75 -0.125 9 1 C9 1.66 9 2.32 9 3 C2.25 2.25 2.25 2.25 0 0 Z " fill="#DAD8D2" transform="translate(155,64)"/>
<path d="M0 0 C0.33 0 0.66 0 1 0 C1.625 3.375 1.625 3.375 2 7 C1.34 7.66 0.68 8.32 0 9 C0 8.01 0 7.02 0 6 C-0.66 6 -1.32 6 -2 6 C-1.49396008 3.83125748 -1.00016187 2.00032373 0 0 Z " fill="#A8A6A0" transform="translate(192,121)"/>
<path d="M0 0 C0 0.66 0 1.32 0 2 C-2.875 2.125 -2.875 2.125 -6 2 C-6.66 1.34 -7.32 0.68 -8 0 C-4.71023192 -1.09658936 -3.28696233 -0.79953138 0 0 Z " fill="#E3E4DD" transform="translate(90,114)"/>
<path d="M0 0 C0.66 0 1.32 0 2 0 C2.33 1.65 2.66 3.3 3 5 C1.35 5.33 -0.3 5.66 -2 6 C-1.34 4.02 -0.68 2.04 0 0 Z " fill="#2C2B26" transform="translate(5,102)"/>
<path d="M0 0 C0.66 0.99 1.32 1.98 2 3 C0.35 4.65 -1.3 6.3 -3 8 C-3.66 7.67 -4.32 7.34 -5 7 C-3.35 4.69 -1.7 2.38 0 0 Z " fill="#D8D7CE" transform="translate(147,16)"/>
</svg>
